<?xml version="1.0" encoding="utf-8"?>
<!-- Generator: Adobe Illustrator 19.0.0, SVG Export Plug-In . SVG Version: 6.00 Build 0)  -->
<svg version="1.1" id="Camada_1" xmlns="http://www.w3.org/2000/svg" xmlns:xlink="http://www.w3.org/1999/xlink" x="0px" y="0px"
	 viewBox="0 0 193.3 192.4" style="enable-background:new 0 0 193.3 192.4;" xml:space="preserve">
<style type="text/css">
	.st0{fill:url(#XMLID_28_);}
	.st1{fill:#999893;}
	.st2{fill:#D8D9D7;}
	.st3{fill:#FFFFFF;}
</style>
<g id="XMLID_44_">
	<g id="XMLID_46_">
		<linearGradient id="XMLID_28_" gradientUnits="userSpaceOnUse" x1="0.9308" y1="96.1753" x2="193.2814" y2="96.1753">
			<stop  offset="0" style="stop-color:#6B6FFF"/>
			<stop  offset="1" style="stop-color:#6B6FFF"/>
		</linearGradient>
		<path id="XMLID_50_" class="st0" d="M97.1,98.6v0.5V98.6L97,98.7L97.1,98.6V0C44,0,0.9,43.1,0.9,96.2c0,53.1,43.1,96.2,96.2,96.2
			s96.2-43.1,96.2-96.2c0-13.5-2.8-26.4-7.9-38.1L97.1,98.6z"/>
		<g id="XMLID_47_">
			<path id="XMLID_49_" class="st1" d="M166.7,29.8C149.2,11.4,124.5,0,97.1,0v98.5l70.5-67.8C167.3,30.5,167,30.1,166.7,29.8z"/>
			<path id="XMLID_48_" class="st2" d="M185.4,58c-4.4-10.1-10.4-19.3-17.8-27.3L97.1,98.5v0.1L185.4,58z"/>
		</g>
	</g>
	<circle id="XMLID_45_" class="st3" cx="97.1" cy="96.2" r="50.7"/>
</g>
</svg>
