<?xml version="1.0" encoding="utf-8"?>
<!-- Generator: Adobe Illustrator 19.0.0, SVG Export Plug-In . SVG Version: 6.00 Build 0)  -->
<svg version="1.1" id="Camada_1" xmlns="http://www.w3.org/2000/svg" xmlns:xlink="http://www.w3.org/1999/xlink" x="0px" y="0px"
	 viewBox="0 0 193.3 192.4" style="enable-background:new 0 0 193.3 192.4;" xml:space="preserve">
<style type="text/css">
	.st0{fill:url(#XMLID_70_);}
	.st1{fill:url(#XMLID_71_);}
	.st2{fill:url(#XMLID_72_);}
	.st3{fill:url(#XMLID_73_);}
	.st4{fill:url(#XMLID_74_);}
	.st5{fill:url(#XMLID_75_);}
	.st6{fill:url(#XMLID_76_);}
	.st7{fill:url(#XMLID_77_);}
	.st8{fill:url(#XMLID_78_);}
	.st9{fill:url(#XMLID_79_);}
	.st10{fill:url(#XMLID_80_);}
	.st11{fill:url(#XMLID_81_);}
	.st12{fill:url(#XMLID_82_);}
	.st13{fill:url(#XMLID_83_);}
	.st14{fill:url(#XMLID_84_);}
	.st15{fill:url(#XMLID_85_);}
	.st16{fill:url(#XMLID_86_);}
	.st17{fill:#F7E681;}
	.st18{fill:url(#XMLID_87_);}
	.st19{fill:url(#XMLID_88_);}
	.st20{fill:url(#XMLID_89_);}
	.st21{fill:url(#XMLID_90_);}
	.st22{fill:url(#XMLID_91_);}
	.st23{fill:url(#XMLID_92_);}
	.st24{fill:url(#XMLID_93_);}
	.st25{fill:url(#XMLID_94_);}
	.st26{fill:url(#XMLID_95_);}
	.st27{fill:url(#XMLID_96_);}
	.st28{fill:#333399;}
	.st29{fill:url(#XMLID_97_);}
	.st30{fill:url(#XMLID_98_);}
	.st31{fill:#D8D9D7;}
	.st32{fill:url(#XMLID_99_);}
	.st33{fill:url(#XMLID_100_);}
	.st34{fill:#97A1FC;}
	.st35{fill:url(#XMLID_101_);}
	.st36{fill:url(#XMLID_102_);}
	.st37{fill:#999893;}
	.st38{fill:#FFFFFF;}
</style>
<g id="XMLID_28_">
	<linearGradient id="XMLID_70_" gradientUnits="userSpaceOnUse" x1="97.2814" y1="95.9998" x2="97.2814" y2="95.9998">
		<stop  offset="0" style="stop-color:#6B6FFF"/>
		<stop  offset="1" style="stop-color:#6B6FFF"/>
	</linearGradient>
	<rect id="XMLID_69_" x="97.3" y="96" class="st0" width="0" height="0"/>
	<linearGradient id="XMLID_71_" gradientUnits="userSpaceOnUse" x1="97.0372" y1="95.9999" x2="97.5254" y2="95.9999">
		<stop  offset="0" style="stop-color:#6B6FFF"/>
		<stop  offset="1" style="stop-color:#6B6FFF"/>
	</linearGradient>
	<rect id="XMLID_68_" x="97.3" y="96" class="st1" width="0" height="0"/>
	<linearGradient id="XMLID_72_" gradientUnits="userSpaceOnUse" x1="97.2814" y1="95.9999" x2="97.2814" y2="95.9999">
		<stop  offset="0" style="stop-color:#6B6FFF"/>
		<stop  offset="1" style="stop-color:#6B6FFF"/>
	</linearGradient>
	<rect id="XMLID_67_" x="97.3" y="96" class="st2" width="0" height="0"/>
	<linearGradient id="XMLID_73_" gradientUnits="userSpaceOnUse" x1="97.0372" y1="95.9999" x2="97.5255" y2="95.9999">
		<stop  offset="0" style="stop-color:#6B6FFF"/>
		<stop  offset="1" style="stop-color:#6B6FFF"/>
	</linearGradient>
	<polygon id="XMLID_66_" class="st3" points="97.3,96 97.3,96 97.3,96 	"/>
	<linearGradient id="XMLID_74_" gradientUnits="userSpaceOnUse" x1="97.0372" y1="95.9999" x2="97.5255" y2="95.9999">
		<stop  offset="0" style="stop-color:#6B6FFF"/>
		<stop  offset="1" style="stop-color:#6B6FFF"/>
	</linearGradient>
	<polygon id="XMLID_65_" class="st4" points="97.3,96 97.3,96 97.3,96 	"/>
	<linearGradient id="XMLID_75_" gradientUnits="userSpaceOnUse" x1="97.0372" y1="95.9998" x2="97.5255" y2="95.9998">
		<stop  offset="0" style="stop-color:#6B6FFF"/>
		<stop  offset="1" style="stop-color:#6B6FFF"/>
	</linearGradient>
	<polygon id="XMLID_64_" class="st5" points="97.3,96 97.3,96 97.3,96 	"/>
	<linearGradient id="XMLID_76_" gradientUnits="userSpaceOnUse" x1="97.0372" y1="95.9999" x2="97.5255" y2="95.9999">
		<stop  offset="0" style="stop-color:#6B6FFF"/>
		<stop  offset="1" style="stop-color:#6B6FFF"/>
	</linearGradient>
	<rect id="XMLID_63_" x="97.3" y="96" class="st6" width="0" height="0"/>
	<linearGradient id="XMLID_77_" gradientUnits="userSpaceOnUse" x1="97.0372" y1="96" x2="97.5255" y2="96">
		<stop  offset="0" style="stop-color:#6B6FFF"/>
		<stop  offset="1" style="stop-color:#6B6FFF"/>
	</linearGradient>
	<polygon id="XMLID_62_" class="st7" points="97.3,96 97.3,96 97.3,96 	"/>
	<linearGradient id="XMLID_78_" gradientUnits="userSpaceOnUse" x1="97.2814" y1="96" x2="97.2814" y2="96">
		<stop  offset="0" style="stop-color:#6B6FFF"/>
		<stop  offset="1" style="stop-color:#6B6FFF"/>
	</linearGradient>
	<rect id="XMLID_61_" x="97.3" y="96" class="st8" width="0" height="0"/>
	<linearGradient id="XMLID_79_" gradientUnits="userSpaceOnUse" x1="97.2814" y1="96" x2="97.2814" y2="96">
		<stop  offset="0" style="stop-color:#6B6FFF"/>
		<stop  offset="1" style="stop-color:#6B6FFF"/>
	</linearGradient>
	<rect id="XMLID_60_" x="97.3" y="96" class="st9" width="0" height="0"/>
	<linearGradient id="XMLID_80_" gradientUnits="userSpaceOnUse" x1="97.0372" y1="96" x2="97.5255" y2="96">
		<stop  offset="0" style="stop-color:#6B6FFF"/>
		<stop  offset="1" style="stop-color:#6B6FFF"/>
	</linearGradient>
	<polygon id="XMLID_59_" class="st10" points="97.3,96 97.3,96 97.3,96 	"/>
	<linearGradient id="XMLID_81_" gradientUnits="userSpaceOnUse" x1="97.0372" y1="96" x2="97.5254" y2="96">
		<stop  offset="0" style="stop-color:#6B6FFF"/>
		<stop  offset="1" style="stop-color:#6B6FFF"/>
	</linearGradient>
	<rect id="XMLID_58_" x="97.3" y="96" class="st11" width="0" height="0"/>
	<linearGradient id="XMLID_82_" gradientUnits="userSpaceOnUse" x1="97.0372" y1="96" x2="97.5255" y2="96">
		<stop  offset="0" style="stop-color:#6B6FFF"/>
		<stop  offset="1" style="stop-color:#6B6FFF"/>
	</linearGradient>
	<polygon id="XMLID_57_" class="st12" points="97.3,96 97.3,96 97.3,96 	"/>
	<linearGradient id="XMLID_83_" gradientUnits="userSpaceOnUse" x1="97.2814" y1="95.9998" x2="97.2814" y2="95.9998">
		<stop  offset="0" style="stop-color:#6B6FFF"/>
		<stop  offset="1" style="stop-color:#6B6FFF"/>
	</linearGradient>
	<rect id="XMLID_56_" x="97.3" y="96" class="st13" width="0" height="0"/>
	<linearGradient id="XMLID_84_" gradientUnits="userSpaceOnUse" x1="97.2814" y1="95.9999" x2="97.2814" y2="95.9999">
		<stop  offset="0" style="stop-color:#6B6FFF"/>
		<stop  offset="1" style="stop-color:#6B6FFF"/>
	</linearGradient>
	<rect id="XMLID_55_" x="97.3" y="96" class="st14" width="0" height="0"/>
	<linearGradient id="XMLID_85_" gradientUnits="userSpaceOnUse" x1="96.793" y1="96" x2="97.7696" y2="96">
		<stop  offset="0" style="stop-color:#6B6FFF"/>
		<stop  offset="1" style="stop-color:#6B6FFF"/>
	</linearGradient>
	<polygon id="XMLID_54_" class="st15" points="97.3,96 97.3,96 97.3,96 	"/>
	<linearGradient id="XMLID_86_" gradientUnits="userSpaceOnUse" x1="97.2814" y1="96" x2="97.2814" y2="96">
		<stop  offset="0" style="stop-color:#6B6FFF"/>
		<stop  offset="1" style="stop-color:#6B6FFF"/>
	</linearGradient>
	<rect id="XMLID_53_" x="97.3" y="96" class="st16" width="0" height="0"/>
	<path id="XMLID_52_" class="st17" d="M190,120.9c2.1-7.9,3.3-16.3,3.3-24.9h-96L190,120.9z"/>
	<linearGradient id="XMLID_87_" gradientUnits="userSpaceOnUse" x1="97.2814" y1="96" x2="97.2814" y2="96">
		<stop  offset="0" style="stop-color:#6B6FFF"/>
		<stop  offset="1" style="stop-color:#6B6FFF"/>
	</linearGradient>
	<rect id="XMLID_51_" x="97.3" y="96" class="st18" width="0" height="0"/>
	<linearGradient id="XMLID_88_" gradientUnits="userSpaceOnUse" x1="97.0373" y1="96" x2="97.5256" y2="96">
		<stop  offset="0" style="stop-color:#6B6FFF"/>
		<stop  offset="1" style="stop-color:#6B6FFF"/>
	</linearGradient>
	<polygon id="XMLID_50_" class="st19" points="97.3,96 97.3,96 97.3,96 	"/>
	<linearGradient id="XMLID_89_" gradientUnits="userSpaceOnUse" x1="97.0373" y1="95.9999" x2="97.5256" y2="95.9999">
		<stop  offset="0" style="stop-color:#6B6FFF"/>
		<stop  offset="1" style="stop-color:#6B6FFF"/>
	</linearGradient>
	<rect id="XMLID_49_" x="97.3" y="96" class="st20" width="0" height="0"/>
	<linearGradient id="XMLID_90_" gradientUnits="userSpaceOnUse" x1="97.2814" y1="95.9998" x2="97.2814" y2="95.9998">
		<stop  offset="0" style="stop-color:#6B6FFF"/>
		<stop  offset="1" style="stop-color:#6B6FFF"/>
	</linearGradient>
	<polygon id="XMLID_48_" class="st21" points="97.3,96 97.3,96 97.3,96 	"/>
	<linearGradient id="XMLID_91_" gradientUnits="userSpaceOnUse" x1="97.2814" y1="95.9999" x2="97.2814" y2="95.9999">
		<stop  offset="0" style="stop-color:#6B6FFF"/>
		<stop  offset="1" style="stop-color:#6B6FFF"/>
	</linearGradient>
	<polygon id="XMLID_47_" class="st22" points="97.3,96 97.3,96 97.3,96 	"/>
	<linearGradient id="XMLID_92_" gradientUnits="userSpaceOnUse" x1="97.2814" y1="95.9998" x2="97.2814" y2="95.9998">
		<stop  offset="0" style="stop-color:#6B6FFF"/>
		<stop  offset="1" style="stop-color:#6B6FFF"/>
	</linearGradient>
	<rect id="XMLID_46_" x="97.3" y="96" class="st23" width="0" height="0"/>
	<linearGradient id="XMLID_93_" gradientUnits="userSpaceOnUse" x1="97.2814" y1="95.9999" x2="97.2814" y2="95.9999">
		<stop  offset="0" style="stop-color:#6B6FFF"/>
		<stop  offset="1" style="stop-color:#6B6FFF"/>
	</linearGradient>
	<polygon id="XMLID_45_" class="st24" points="97.3,96 97.3,96 97.3,96 	"/>
	<linearGradient id="XMLID_94_" gradientUnits="userSpaceOnUse" x1="97.2814" y1="96" x2="97.2814" y2="96">
		<stop  offset="0" style="stop-color:#6B6FFF"/>
		<stop  offset="1" style="stop-color:#6B6FFF"/>
	</linearGradient>
	<polygon id="XMLID_44_" class="st25" points="97.3,96 97.3,96 97.3,96 	"/>
	<linearGradient id="XMLID_95_" gradientUnits="userSpaceOnUse" x1="97.2814" y1="96" x2="97.2814" y2="96">
		<stop  offset="0" style="stop-color:#6B6FFF"/>
		<stop  offset="1" style="stop-color:#6B6FFF"/>
	</linearGradient>
	<rect id="XMLID_43_" x="97.3" y="96" class="st26" width="0" height="0"/>
	<linearGradient id="XMLID_96_" gradientUnits="userSpaceOnUse" x1="97.2814" y1="95.9999" x2="97.2814" y2="95.9999">
		<stop  offset="0" style="stop-color:#6B6FFF"/>
		<stop  offset="1" style="stop-color:#6B6FFF"/>
	</linearGradient>
	<rect id="XMLID_42_" x="97.3" y="96" class="st27" width="0" height="0"/>
	<path id="XMLID_41_" class="st28" d="M97.3,96L97.3,96l0,96c8.6,0,16.9-1.1,24.9-3.3c8.2-2.2,16-5.4,23.2-9.6
		c7.3-4.2,14-9.4,19.9-15.3c5.9-5.9,11.1-12.6,15.3-19.9c4.2-7.2,7.4-15,9.6-23.2L97.3,96z"/>
	<path id="XMLID_40_" class="st17" d="M97.3,96L97.3,96h96c0-8.6-1.1-16.9-3.3-24.9L97.3,96L97.3,96z"/>
	<linearGradient id="XMLID_97_" gradientUnits="userSpaceOnUse" x1="97.2815" y1="71.9965" x2="190.0265" y2="71.9965">
		<stop  offset="0" style="stop-color:#FFC814"/>
		<stop  offset="1" style="stop-color:#FFD85A"/>
	</linearGradient>
	<path id="XMLID_39_" class="st29" d="M190,71.1c-2.2-8.2-5.4-16-9.6-23.2L97.3,96L190,71.1z"/>
	<linearGradient id="XMLID_98_" gradientUnits="userSpaceOnUse" x1="97.0373" y1="96" x2="97.5256" y2="96">
		<stop  offset="0" style="stop-color:#6B6FFF"/>
		<stop  offset="1" style="stop-color:#6B6FFF"/>
	</linearGradient>
	<rect id="XMLID_38_" x="97.3" y="96" class="st30" width="0" height="0"/>
	<path id="XMLID_37_" class="st31" d="M97.3,96L97.3,96l83.1-48c-4.2-7.3-9.4-14-15.3-19.9L97.3,96L97.3,96z"/>
	<linearGradient id="XMLID_99_" gradientUnits="userSpaceOnUse" x1="97.2814" y1="96" x2="97.2814" y2="96">
		<stop  offset="0" style="stop-color:#6B6FFF"/>
		<stop  offset="1" style="stop-color:#6B6FFF"/>
	</linearGradient>
	<polygon id="XMLID_36_" class="st32" points="97.3,96 97.3,96 97.3,96 	"/>
	<linearGradient id="XMLID_100_" gradientUnits="userSpaceOnUse" x1="97.2814" y1="96" x2="97.2814" y2="96">
		<stop  offset="0" style="stop-color:#6B6FFF"/>
		<stop  offset="1" style="stop-color:#6B6FFF"/>
	</linearGradient>
	<polygon id="XMLID_35_" class="st33" points="97.3,96 97.3,96 97.3,96 	"/>
	<path id="XMLID_34_" class="st34" d="M97.3,96l48-83.1c-7.2-4.2-15-7.4-23.2-9.6L97.3,96L97.3,96z"/>
	<linearGradient id="XMLID_101_" gradientUnits="userSpaceOnUse" x1="97.2814" y1="96" x2="97.2814" y2="96">
		<stop  offset="0" style="stop-color:#6B6FFF"/>
		<stop  offset="1" style="stop-color:#6B6FFF"/>
	</linearGradient>
	<polygon id="XMLID_33_" class="st35" points="97.3,96 97.3,96 97.3,96 	"/>
	<linearGradient id="XMLID_102_" gradientUnits="userSpaceOnUse" x1="-17.3951" y1="96" x2="261.6599" y2="96">
		<stop  offset="0" style="stop-color:#6B6FFF"/>
		<stop  offset="1" style="stop-color:#6B6FFF"/>
	</linearGradient>
	<path id="XMLID_32_" class="st36" d="M97.3,96l24.9-92.7C114.2,1.1,105.9,0,97.3,0h0c-8.6,0-16.9,1.1-24.9,3.3
		c-8.2,2.2-16,5.4-23.2,9.6c-7.3,4.2-14,9.4-19.9,15.3C23.5,34,18.3,40.7,14.1,48c-4.2,7.2-7.4,15-9.6,23.2
		C2.4,79.1,1.3,87.4,1.3,96c0,8.6,1.1,16.9,3.3,24.9c2.2,8.2,5.4,16,9.6,23.2c4.2,7.3,9.4,14,15.3,19.9c5.9,5.9,12.6,11.1,19.9,15.3
		c7.2,4.2,15,7.4,23.2,9.6c7.9,2.1,16.3,3.3,24.9,3.3L97.3,96L97.3,96L97.3,96L97.3,96L97.3,96z"/>
	<path id="XMLID_31_" class="st37" d="M165.2,28.1c-5.9-5.9-12.6-11.1-19.9-15.3L97.3,96L165.2,28.1z"/>
	<g id="XMLID_29_">
		<circle id="XMLID_30_" class="st38" cx="97.3" cy="96" r="50.7"/>
	</g>
</g>
</svg>
