<?xml version="1.0" encoding="utf-8"?>
<!-- Generator: Adobe Illustrator 19.0.0, SVG Export Plug-In . SVG Version: 6.00 Build 0)  -->
<svg version="1.1" id="Camada_1" xmlns="http://www.w3.org/2000/svg" xmlns:xlink="http://www.w3.org/1999/xlink" x="0px" y="0px"
	 viewBox="0 0 1000 1000" style="enable-background:new 0 0 1000 1000;" xml:space="preserve">
<style type="text/css">
	.st0{fill:#FFFFFF;}
</style>
<g id="XMLID_27_">
	<g id="XMLID_47_">
		<path id="XMLID_136_" class="st0" d="M448.4,191.9c15.6,9,33.4,13.8,51.3,13.8c36.7,0,70.8-19.7,89.1-51.4
			c13.7-23.8,17.4-51.5,10.3-78c-7.1-26.5-24.1-48.7-47.9-62.4C535.5,4.8,517.8,0,499.8,0c-36.7,0-70.8,19.7-89.1,51.4
			c-13.7,23.8-17.4,51.5-10.3,78S424.6,178.1,448.4,191.9z M429.3,62.1c15.1-26.1,42.4-40.7,70.6-40.7c13.8,0,27.8,3.5,40.6,10.9
			c38.9,22.5,52.3,72.3,29.8,111.2c-15.1,26.1-42.4,40.7-70.6,40.7c-13.8,0-27.8-3.5-40.6-10.9C420.1,150.9,406.8,101.1,429.3,62.1z
			"/>
		<path id="XMLID_164_" class="st0" d="M843.2,390.2c-25.4-44-81.8-59.1-125.8-33.7c-21.3,12.3-36.5,32.2-42.9,55.9
			c-6.4,23.8-3.1,48.6,9.2,69.9c12.3,21.3,32.2,36.5,55.9,42.9c7.9,2.1,16,3.2,24,3.2c16,0,31.7-4.2,45.9-12.4
			C853.5,490.6,868.6,434.2,843.2,390.2z M798.8,497.5c-16.4,9.4-35.4,12-53.6,7.1c-18.2-4.9-33.5-16.6-42.9-32.9
			c-9.4-16.4-12-35.4-7.1-53.7c4.9-18.2,16.6-33.5,32.9-42.9c11.1-6.4,23.2-9.5,35.2-9.5c24.5,0,48.3,12.7,61.4,35.3
			C844.2,434.6,832.6,478,798.8,497.5z"/>
		<path id="XMLID_167_" class="st0" d="M328.6,436.2c0-50.8-41.3-92.1-92.1-92.1s-92.1,41.3-92.1,92.1s41.3,92.1,92.1,92.1
			S328.6,487,328.6,436.2z M236.5,506.9c-39,0-70.7-31.7-70.7-70.7s31.7-70.7,70.7-70.7s70.7,31.7,70.7,70.7
			S275.5,506.9,236.5,506.9z"/>
		<path id="XMLID_170_" class="st0" d="M337.1,533.9c-34.2,0-62.1,27.9-62.1,62.1s27.9,62.1,62.1,62.1s62.1-27.9,62.1-62.1
			S371.3,533.9,337.1,533.9z M337.1,636.7c-22.4,0-40.7-18.3-40.7-40.7s18.2-40.7,40.7-40.7c22.4,0,40.7,18.3,40.7,40.7
			S359.5,636.7,337.1,636.7z"/>
		<path id="XMLID_174_" class="st0" d="M662.9,533.7c-34.2,0-62.1,27.9-62.1,62.1s27.9,62.1,62.1,62.1c34.2,0,62.1-27.9,62.1-62.1
			S697.2,533.7,662.9,533.7z M662.9,636.4c-22.4,0-40.7-18.3-40.7-40.7s18.2-40.7,40.7-40.7c22.4,0,40.7,18.3,40.7,40.7
			S685.4,636.4,662.9,636.4z"/>
		<path id="XMLID_177_" class="st0" d="M604.5,388.5l79.3-83.3c10.4,3.4,21.4,5.2,32.3,5.2c56.7,0,102.8-46.1,102.8-102.8
			c0-56.7-46.1-102.8-102.8-102.8c-56.7,0-102.8,46.1-102.8,102.8c0,12.7,2.4,25.3,6.9,37L541,327.9c-10.4-3.4-21.3-5.2-32.3-5.2
			c-12.4,0-24.7,2.3-36.3,6.6l-91.3-88.5c9.6-27.9,6.8-58.5-8.3-84.6c-18.3-31.7-52.5-51.4-89.1-51.4c-18,0-35.7,4.8-51.3,13.8
			c-49.1,28.3-66,91.4-37.6,140.4c18.3,31.7,52.5,51.4,89.1,51.4c12.4,0,24.6-2.3,36.1-6.6l91.3,88.5c-15.8,45.8-1.4,97.2,42,122.3
			c2.5,1.4,3.6,2.7,3.6,3.9v110c0,24.2,24.3,43.9,48.5,43.9s48.5-19.7,48.5-43.9v-110c22-8.9,33.8-23.2,44.4-41.6
			C614,449.8,615.6,417.2,604.5,388.5z M580.1,466.2c-11,19-26.1,31.9-47.1,37.5v124.8c0,12.4-15.1,22.5-27.5,22.5
			S478,641,478,628.5V503.8c0-1.8-8.3-4.4-14.1-7.7c-38.1-22-49.7-70.2-29.1-108.8l-111.4-109c-12.8,7.3-26.2,10.8-39.9,10.8
			c-28.1,0-55.2-14.6-70.3-40.7c-22.5-38.9-9-88.7,29.9-111.2c12.8-7.4,26.9-10.9,40.7-10.9c28.1,0,55.5,14.6,70.6,40.7
			c14.6,25.2,14.1,55,1.3,79l112.5,109c12.3-7.1,26.4-10.8,40.6-10.8c12.7,0,25.6,3,37.6,9.3L646,248.7
			c-7.1-12.1-11.2-26.1-11.2-41.1c0-45,36.4-81.4,81.4-81.4c45,0,81.4,36.4,81.4,81.4c0,45-36.4,81.4-81.4,81.4
			c-13.6,0-26.4-3.4-37.7-9.3l-99.2,104.6C593.6,408.8,595.2,440,580.1,466.2z"/>
	</g>
	<g id="XMLID_67_">
		<path id="XMLID_107_" class="st0" d="M89.5,797.6c31.5,0,53.1,14.9,64.8,31.1v-28h49.9v196h-49.9v-28.7
			c-11.7,17-34,31.8-65.1,31.8C39.6,1000,0,959.3,0,898.1S39.6,797.6,89.5,797.6z M102.3,841.1c-26.5,0-51.7,19.8-51.7,57
			c0,37.2,25.1,58.4,51.7,58.4c27.3,0,52-20.5,52-57.7C154.3,861.6,129.5,841.1,102.3,841.1z"/>
		<path id="XMLID_94_" class="st0" d="M302.2,996.8h-49.5v-196h49.5v30.4c12.4-20.2,32.9-33.3,60.2-33.3v52h-13.1
			c-29.4,0-47.1,11.3-47.1,49.2V996.8z"/>
		<path id="XMLID_76_" class="st0" d="M481.2,1000c-57,0-98.4-39.6-98.4-101.2c0-61.9,40.3-101.2,98.4-101.2
			c56.6,0,96.6,38.6,96.6,97c0,6.4-0.4,12.7-1.4,19.1H433.1c2.5,29,22.3,45.3,47.1,45.3c21.2,0,32.9-10.6,39.3-23.7h53.4
			C562.3,971.3,529.7,1000,481.2,1000z M433.5,880.4h93.1c-0.7-25.8-21.2-42.1-46.7-42.1C456.1,838.3,437.4,853.5,433.5,880.4z"/>
		<path id="XMLID_74_" class="st0" d="M799,996.8h-49.9V972c-12.4,16.6-34,27.2-58.4,27.2c-45.6,0-78.6-29.7-78.6-83.5v-115h49.5
			v107.9c0,31.5,17.3,48.5,43.5,48.5c26.9,0,43.9-17,43.9-48.5V800.8H799V996.8z"/>
		<path id="XMLID_71_" class="st0" d="M922.9,1000c-49.2,0-83.5-28.7-85.6-65.1h49.9c1.8,14.9,15.6,26.2,35.4,26.2
			c19.5,0,30.1-8.8,30.1-20.2c0-35-110.8-12.7-110.8-84.6c0-32.6,29-58.7,77.5-58.7c47.4,0,76.1,25.8,78.9,64.8h-47.4
			c-1.4-15.2-13.5-25.5-32.9-25.5c-18.4,0-28,7.4-28,18.8c0,35.7,108.6,13.5,110,85.3C1000,974.5,970.6,1000,922.9,1000z"/>
	</g>
</g>
</svg>
