<?xml version="1.0" encoding="utf-8"?>
<!-- Generator: Adobe Illustrator 19.0.0, SVG Export Plug-In . SVG Version: 6.00 Build 0)  -->
<svg version="1.1" id="Camada_1" xmlns="http://www.w3.org/2000/svg" xmlns:xlink="http://www.w3.org/1999/xlink" x="0px" y="0px"
	 viewBox="-444 246 70 70" style="enable-background:new -444 246 70 70;" xml:space="preserve">
<style type="text/css">
	.st0{fill:#6B6FFF;}
	.st1{fill:#FFFFFF;}
</style>
<circle id="XMLID_264_" class="st0" cx="-409" cy="281" r="35"/>
<g id="XMLID_70_">
	<path id="XMLID_72_" class="st1" d="M-421.7,281.9c-1.4,0.2-2.3,1.4-2.1,2.8c0,0.3,0.1,0.6,0.3,0.8l5.4,10.5
		c0.5,0.9,1.2,1.7,2.2,2.2l0.1,0.1l2.7,1.1h0.1c0.5,0.2,0.9,0.5,1.1,1l0.3,0.8c0.2,0.6,0.8,0.9,1.3,0.7c0.6-0.2,0.9-0.8,0.7-1.3
		v-0.1l-0.3-0.8c-0.4-1.1-1.3-2-2.4-2.4l-2.6-1.1c-0.5-0.3-1-0.8-1.3-1.3l-5.5-10.6c-0.1-0.2,0-0.4,0.1-0.5h0.1
		c1.4-0.2,2.8,0.5,3.6,1.7l1.5,2.5c0,0,0,0.1,0.1,0.1c0.9,1.2,2.6,2,3.9,1.1c0.3-0.2,0.5-0.5,0.5-0.9l0.6-19.4
		c0-0.8,0.7-1.4,1.5-1.4c0.1,0,0.1,0,0.2,0c0.7,0.1,1.2,0.7,1.2,1.4l0.3,10.2c0,0.6,0.5,1.1,1.1,1c0.4,0,0.8-0.3,1-0.7
		c0.3-0.7,1-1.1,1.7-1c0.7,0.2,1.2,0.8,1.2,1.6v0.3c0,0.6,0.5,1.1,1.1,1.1c0.3,0,0.6-0.1,0.8-0.4c0.3-0.4,0.9-0.6,1.4-0.5
		c0.8,0.1,1.3,0.8,1.3,1.6v0.3c0,0.6,0.5,1.1,1.1,1.1c0.3,0,0.6-0.1,0.8-0.4c0.3-0.3,0.7-0.5,1.2-0.5c0.9,0.1,1.5,0.8,1.5,1.7v8.7
		c0,2.6-1.6,4.5-2.3,5.2c-0.4,0.4-0.8,1-1,1.6l-0.3,0.9c-0.2,0.5,0,1.2,0.6,1.4c0.5,0.2,1.2,0,1.4-0.6v-0.1l0.3-0.9
		c0.1-0.3,0.3-0.6,0.5-0.8c1.1-1.1,2.9-3.5,2.9-6.7v-8.4c0-2-1.5-3.7-3.6-3.8c-0.4,0-0.9,0.1-1.3,0.2c-0.7-1.8-2.7-2.7-4.6-2.1
		c-0.5-1.1-1.5-2-2.7-2.2c-0.7-0.1-1.4-0.1-2.1,0.2l-0.2-7.8c0-1.8-1.4-3.2-3.1-3.5c-2-0.3-3.7,1.1-4,3.1c0,0.1,0,0.3,0,0.4
		l-0.6,18.4c-0.2-0.1-0.4-0.3-0.5-0.5l-1.5-2.4C-417.1,282.7-419.4,281.6-421.7,281.9z"/>
	<path id="XMLID_71_" class="st1" d="M-421.7,270.4L-421.7,270.4c2.7,0.6,2.7,1.8,2.7,2.2c0,1.5-1.3,2.2-2.5,2.2
		c-1,0-1.9-0.6-2.3-1.5c-0.2-0.6-0.8-0.8-1.4-0.6c-0.6,0.2-0.8,0.8-0.6,1.4v0.1c0.6,1.4,1.7,2.4,3.2,2.7v1.1c0,0.6,0.5,1.1,1.1,1.1
		s1.1-0.5,1.1-1.1v-1c2-0.4,3.5-2.1,3.5-4.2c0-1.2-0.6-3.4-4.3-4.3l0,0c-2.7-0.6-2.7-1.8-2.7-2.2c0-1.5,1.3-2.2,2.5-2.2
		c1,0,1.9,0.6,2.3,1.5c0.3,0.5,0.9,0.7,1.4,0.5c0.5-0.2,0.7-0.8,0.5-1.3c-0.6-1.4-1.8-2.3-3.2-2.7V261c0-0.6-0.5-1.1-1.1-1.1
		s-1.1,0.5-1.1,1.1v1c-2,0.4-3.5,2.1-3.5,4.2C-426.1,267.4-425.5,269.6-421.7,270.4z"/>
</g>
</svg>
