<?xml version="1.0" encoding="utf-8"?>
<!-- Generator: Adobe Illustrator 19.0.0, SVG Export Plug-In . SVG Version: 6.00 Build 0)  -->
<svg version="1.1" id="Camada_1" xmlns="http://www.w3.org/2000/svg" xmlns:xlink="http://www.w3.org/1999/xlink" x="0px" y="0px"
	 viewBox="-444 246 70 70" style="enable-background:new -444 246 70 70;" xml:space="preserve">
<style type="text/css">
	.st0{fill:#6868FE;}
</style>
<g>
	<g>
		<path class="st0" d="M-427,300.1c0,3.2-2.6,5.9-5.9,5.9h-0.3c-3.2,0-5.9-2.6-5.9-5.9v-17.3c0-3.2,2.6-5.9,5.9-5.9h0.3
			c3.2,0,5.9,2.6,5.9,5.9V300.1z M-430,282.5c0-1.9-1.6-3.5-3.5-3.5l0,0c-1.9,0-3.5,1.6-3.5,3.5v16c0,1.9,1.6,3.5,3.5,3.5l0,0
			c1.9,0,3.5-1.6,3.5-3.5V282.5z"/>
	</g>
	<g>
		<path class="st0" d="M-406.7,310.2c-2.1,0-4.1-0.7-6-2.1c-0.5-0.4-0.6-1.1-0.2-1.6s1.1-0.6,1.6-0.2c1.5,1.1,3,1.6,4.6,1.6
			c1,0,2-0.3,3.1-0.9c0.6-0.3,1.3-0.1,1.6,0.5c0.3,0.6,0.1,1.3-0.5,1.6C-404,309.8-405.4,310.2-406.7,310.2z"/>
	</g>
	<g>
		<path class="st0" d="M-405.7,295c-0.6,0-1.2-0.5-1.2-1.2s0.5-1.2,1.2-1.2c1.3,0,2.3-1,2.3-2.3s-1-2.3-2.3-2.3
			c-0.6,0-1.2-0.5-1.2-1.2s0.5-1.2,1.2-1.2c2.6,0,4.7,2.1,4.7,4.6C-401,292.9-403.1,295-405.7,295z"/>
	</g>
	<g>
		<path class="st0" d="M-411.3,308.8c-0.2,0-0.4-0.1-0.6-0.2l-16.3-9.5c-0.6-0.3-0.7-1-0.4-1.6c0.3-0.6,1-0.7,1.6-0.4l16.3,9.5
			c0.6,0.3,0.7,1,0.4,1.6C-410.5,308.6-410.9,308.8-411.3,308.8z"/>
	</g>
	<g>
		<path class="st0" d="M-403.7,309.4c-0.4,0-0.8-0.2-1-0.6c-0.3-0.6-0.2-1.3,0.4-1.6l21.7-13.4l0.1-0.1c1.1-0.5,1.7-1.6,1.4-2.7
			c-0.2-0.6-0.5-1-1.1-1.3s-1.2-0.4-1.8-0.2h-0.1l-0.5,0.1l-20.7,5.3c-0.1,0-0.2-0.1-0.3-0.1l-11.4,0.1l0,0c-0.6,0-1.2-0.4-1.2-1
			s0.5-1.1,1.2-1.1l11.2-0.2l20.5-5.2c0,0,0,0,0.1,0l0.5-0.1c1.2-0.3,2.4-0.2,3.5,0.4s1.9,1.6,2.2,2.8c0.6,2.2-0.5,4.5-2.6,5.5
			l-21.6,13.3C-403.3,309.4-403.5,309.4-403.7,309.4z"/>
	</g>
	<g>
		<path class="st0" d="M-404.8,288.2L-404.8,288.2l-14.1-1.1c-0.5,0-0.9-0.3-1-0.8l0,0c0,0-1.2-2.6-7.5-2.4c-0.6,0-1.2-0.5-1.2-1.1
			s0.5-1.2,1.1-1.2c6.3-0.2,8.6,2,9.4,3.3l13.4,1.1c0.6,0.1,1.1,0.6,1.1,1.3C-403.6,287.7-404.1,288.2-404.8,288.2z"/>
	</g>
	<g>
		<path class="st0" d="M-396.7,272.5c-0.2,0-0.4,0-0.6,0c-0.6,0-1.1-0.6-1.1-1.2s0.6-1.1,1.2-1.1c2.1,0.1,4.2-0.6,5.8-2
			c1.6-1.4,2.5-3.4,2.6-5.5s-0.6-4.2-2-5.8c-1.4-1.6-3.4-2.5-5.5-2.6c-2.4-0.1-4.8,0.8-6.4,2.6c-0.4,0.5-1.2,0.5-1.7,0.1
			s-0.5-1.2-0.1-1.7c2.1-2.3,5.1-3.6,8.3-3.4c2.8,0.1,5.3,1.4,7.1,3.4c1.8,2.1,2.8,4.7,2.6,7.5c-0.1,2.8-1.4,5.3-3.4,7.1
			C-391.7,271.6-394.1,272.5-396.7,272.5z"/>
	</g>
	<g>
		<path class="st0" d="M-406.8,277.2c-5.7,0-10.4-4.6-10.4-10.4s4.6-10.4,10.4-10.4c5.7,0,10.4,4.6,10.4,10.4
			S-401.1,277.2-406.8,277.2z M-406.8,258.8c-4.4,0-8,3.6-8,8s3.6,8,8,8s8-3.6,8-8S-402.4,258.8-406.8,258.8z"/>
	</g>
	<g>
		<circle class="st0" cx="-406.8" cy="266.8" r="5.2"/>
	</g>
</g>
</svg>
