<?xml version="1.0" encoding="utf-8"?>
<!-- Generator: Adobe Illustrator 19.0.0, SVG Export Plug-In . SVG Version: 6.00 Build 0)  -->
<svg version="1.1" id="Camada_1" xmlns="http://www.w3.org/2000/svg" xmlns:xlink="http://www.w3.org/1999/xlink" x="0px" y="0px"
	 viewBox="0 0 92 92" style="enable-background:new 0 0 92 92;" xml:space="preserve">
<style type="text/css">
	.st0{fill:#FFFFFF;}
</style>
<g id="XMLID_27_">
	<g id="XMLID_47_">
		<path id="XMLID_136_" class="st0" d="M41.2,17.7c1.4,0.8,3.1,1.3,4.7,1.3c3.4,0,6.5-1.8,8.2-4.7c1.3-2.2,1.6-4.7,0.9-7.2
			c-0.7-2.4-2.2-4.5-4.4-5.7C49.3,0.4,47.6,0,46,0c-3.4,0-6.5,1.8-8.2,4.7c-1.3,2.2-1.6,4.7-0.9,7.2C37.5,14.4,39.1,16.4,41.2,17.7z
			 M39.5,5.7C40.9,3.3,43.4,2,46,2c1.3,0,2.6,0.3,3.7,1c3.6,2.1,4.8,6.6,2.7,10.2C51.1,15.6,48.6,17,46,17c-1.3,0-2.6-0.3-3.7-1
			C38.7,13.9,37.4,9.3,39.5,5.7z"/>
		<path id="XMLID_164_" class="st0" d="M77.6,35.9c-2.3-4-7.5-5.4-11.6-3.1c-2,1.1-3.4,3-3.9,5.1c-0.6,2.2-0.3,4.5,0.8,6.4
			c1.1,2,3,3.4,5.1,3.9c0.7,0.2,1.5,0.3,2.2,0.3c1.5,0,2.9-0.4,4.2-1.1C78.5,45.1,79.9,39.9,77.6,35.9z M73.5,45.8
			c-1.5,0.9-3.3,1.1-4.9,0.6c-1.7-0.4-3.1-1.5-3.9-3c-0.9-1.5-1.1-3.3-0.7-4.9c0.4-1.7,1.5-3.1,3-3.9c1-0.6,2.1-0.9,3.2-0.9
			c2.2,0,4.4,1.2,5.6,3.3C77.7,40,76.6,44,73.5,45.8z"/>
		<path id="XMLID_167_" class="st0" d="M30.2,40.1c0-4.7-3.8-8.5-8.5-8.5s-8.5,3.8-8.5,8.5s3.8,8.5,8.5,8.5S30.2,44.8,30.2,40.1z
			 M21.8,46.6c-3.6,0-6.5-2.9-6.5-6.5s2.9-6.5,6.5-6.5s6.5,2.9,6.5,6.5S25.3,46.6,21.8,46.6z"/>
		<path id="XMLID_170_" class="st0" d="M31,49.1c-3.1,0-5.7,2.6-5.7,5.7s2.6,5.7,5.7,5.7s5.7-2.6,5.7-5.7S34.2,49.1,31,49.1z
			 M31,58.6c-2.1,0-3.7-1.7-3.7-3.7s1.7-3.7,3.7-3.7s3.7,1.7,3.7,3.7S33.1,58.6,31,58.6z"/>
		<path id="XMLID_174_" class="st0" d="M61,49.1c-3.1,0-5.7,2.6-5.7,5.7s2.6,5.7,5.7,5.7c3.1,0,5.7-2.6,5.7-5.7S64.1,49.1,61,49.1z
			 M61,58.6c-2.1,0-3.7-1.7-3.7-3.7s1.7-3.7,3.7-3.7c2.1,0,3.7,1.7,3.7,3.7S63.1,58.6,61,58.6z"/>
		<path id="XMLID_177_" class="st0" d="M55.6,35.7l7.3-7.7c1,0.3,2,0.5,3,0.5c5.2,0,9.5-4.2,9.5-9.5c0-5.2-4.2-9.5-9.5-9.5
			c-5.2,0-9.5,4.2-9.5,9.5c0,1.2,0.2,2.3,0.6,3.4l-7.3,7.7c-1-0.3-2-0.5-3-0.5c-1.1,0-2.3,0.2-3.3,0.6l-8.4-8.1
			c0.9-2.6,0.6-5.4-0.8-7.8c-1.7-2.9-4.8-4.7-8.2-4.7c-1.7,0-3.3,0.4-4.7,1.3c-4.5,2.6-6.1,8.4-3.5,12.9c1.7,2.9,4.8,4.7,8.2,4.7
			c1.1,0,2.3-0.2,3.3-0.6l8.4,8.1c-1.5,4.2-0.1,8.9,3.8,11.2c0.2,0.1,0.3,0.3,0.3,0.4v10.1c0,2.2,2.3,4,4.5,4s4.5-1.8,4.5-4V47.7
			c2-0.8,3.1-2.1,4.1-3.8C56.5,41.4,56.6,38.4,55.6,35.7z M53.3,42.9c-1,1.7-2.3,2.9-4.3,3.5v11.5c0,1.1-1.4,2.1-2.5,2.1
			S44,59,44,57.8V46.3c0-0.2-0.8-0.4-1.3-0.7c-3.5-2-4.6-6.5-2.7-10l-10.3-10c-1.2,0.7-2.4,1-3.7,1c-2.6,0-5.1-1.3-6.5-3.7
			c-2.1-3.6-0.8-8.2,2.8-10.2c1.2-0.7,2.5-1,3.7-1c2.6,0,5.1,1.3,6.5,3.7c1.3,2.3,1.3,5.1,0.1,7.3l10.3,10c1.1-0.7,2.4-1,3.7-1
			c1.2,0,2.4,0.3,3.5,0.9l9.2-9.6c-0.7-1.1-1-2.4-1-3.8c0-4.1,3.4-7.5,7.5-7.5c4.1,0,7.5,3.4,7.5,7.5c0,4.1-3.4,7.5-7.5,7.5
			c-1.3,0-2.4-0.3-3.5-0.9l-9.1,9.6C54.6,37.6,54.7,40.5,53.3,42.9z"/>
	</g>
	<g id="XMLID_67_">
		<path id="XMLID_107_" class="st0" d="M8.2,73.4c2.9,0,4.9,1.4,6,2.9v-2.6h4.6v18h-4.6v-2.6c-1.1,1.6-3.1,2.9-6,2.9
			C3.6,92,0,88.3,0,82.6C0,77,3.6,73.4,8.2,73.4z M9.4,77.4c-2.4,0-4.8,1.8-4.8,5.2C4.7,86,7,88,9.4,88c2.5,0,4.8-1.9,4.8-5.3
			C14.2,79.3,11.9,77.4,9.4,77.4z"/>
		<path id="XMLID_94_" class="st0" d="M27.8,91.7h-4.6v-18h4.6v2.8c1.1-1.9,3-3.1,5.5-3.1v4.8h-1.2c-2.7,0-4.3,1-4.3,4.5V91.7z"/>
		<path id="XMLID_76_" class="st0" d="M44.3,92c-5.2,0-9-3.6-9-9.3c0-5.7,3.7-9.3,9-9.3c5.2,0,8.9,3.5,8.9,8.9c0,0.6,0,1.2-0.1,1.8
			H39.8c0.2,2.7,2.1,4.2,4.3,4.2c2,0,3-1,3.6-2.2h4.9C51.7,89.4,48.7,92,44.3,92z M39.9,81h8.6c-0.1-2.4-2-3.9-4.3-3.9
			C42,77.1,40.2,78.5,39.9,81z"/>
		<path id="XMLID_74_" class="st0" d="M73.5,91.7h-4.6v-2.3c-1.1,1.5-3.1,2.5-5.4,2.5c-4.2,0-7.2-2.7-7.2-7.7V73.7h4.6v9.9
			c0,2.9,1.6,4.5,4,4.5c2.5,0,4-1.6,4-4.5v-9.9h4.6V91.7z"/>
		<path id="XMLID_71_" class="st0" d="M84.9,92c-4.5,0-7.7-2.6-7.9-6h4.6c0.2,1.4,1.4,2.4,3.3,2.4c1.8,0,2.8-0.8,2.8-1.9
			c0-3.2-10.2-1.2-10.2-7.8c0-3,2.7-5.4,7.1-5.4c4.4,0,7,2.4,7.3,6h-4.4c-0.1-1.4-1.2-2.3-3-2.3c-1.7,0-2.6,0.7-2.6,1.7
			c0,3.3,10,1.2,10.1,7.8C92,89.7,89.3,92,84.9,92z"/>
	</g>
</g>
</svg>
