<?xml version="1.0" encoding="utf-8"?>
<!-- Generator: Adobe Illustrator 19.0.0, SVG Export Plug-In . SVG Version: 6.00 Build 0)  -->
<svg version="1.1" id="Camada_1" xmlns="http://www.w3.org/2000/svg" xmlns:xlink="http://www.w3.org/1999/xlink" x="0px" y="0px"
	 viewBox="-444 246 70 70" style="enable-background:new -444 246 70 70;" xml:space="preserve">
<style type="text/css">
	.st0{fill:#6868FE;}
</style>
<g>
	<path class="st0" d="M-398.1,278.9c1.4-10.5-1.6-18.6-4.3-23.6c-2.9-5.2-6-8-6.1-8.1l0,0c0,0,0,0-0.1,0l0,0l0,0c0,0,0,0-0.1,0l0,0
		l0,0c0,0,0,0-0.1,0l0,0l0,0c0,0,0,0-0.1,0c0,0,0,0-0.1,0s0,0-0.1,0l0,0l0,0c0,0,0,0-0.1,0l0,0l0,0c0,0,0,0-0.1,0l0,0l0,0
		c0,0,0,0-0.1,0l0,0l0,0c-0.1,0.1-3.2,2.9-6.1,8.1c-2.7,5-5.7,13.1-4.3,23.6c-1.6,1.3-4.2,3.8-5.6,7.8c-1.9,5.4-1.2,11.7,2,18.7
		c0.1,0.3,0.4,0.5,0.7,0.5h0.1c0.4-0.1,0.6-0.4,0.7-0.7c0-0.1,1-9.7,6-12.6c0.2,0.5,0.4,0.9,0.6,1.4h-0.1c-0.5,0-0.8,0.4-0.8,0.8
		v2.4c0,0.5,0.4,0.8,0.8,0.8h1.7v2.9c0,0.5,0.4,0.8,0.8,0.8h7.8c0.5,0,0.8-0.4,0.8-0.8v-3h1.7c0.5,0,0.8-0.4,0.8-0.8v-2.4
		c0-0.5-0.4-0.8-0.8-0.8h-0.1c0.2-0.5,0.4-0.9,0.6-1.4c5,2.9,6,12.5,6,12.6c0,0.4,0.3,0.7,0.7,0.7h0.1c0.3,0,0.6-0.2,0.7-0.5
		c3.3-7,3.9-13.3,2-18.7C-393.9,282.6-396.5,280.1-398.1,278.9z M-413.9,255.3c0.1-0.2,0.2-0.3,0.3-0.5c0,0,0-0.1,0.1-0.1
		c0.1-0.2,0.2-0.4,0.3-0.5c0,0,0-0.1,0.1-0.1c0.1-0.1,0.2-0.3,0.3-0.4c0,0,0-0.1,0.1-0.1c0.2-0.3,0.4-0.6,0.6-0.9c0,0,0-0.1,0.1-0.1
		c0.1-0.1,0.2-0.3,0.3-0.4c0,0,0,0,0-0.1c0.1-0.1,0.2-0.3,0.3-0.4c0,0,0,0,0.1-0.1s0.2-0.2,0.3-0.3c0,0,0-0.1,0.1-0.1
		c0.1-0.1,0.2-0.2,0.3-0.4l0,0c0.1-0.1,0.2-0.2,0.3-0.3c0,0,0,0,0.1-0.1s0.2-0.2,0.2-0.3l0,0c0.1-0.1,0.2-0.2,0.2-0.3c0,0,0,0,0-0.1
		c0.1-0.1,0.1-0.2,0.2-0.2l0,0c0.1-0.1,0.1-0.2,0.2-0.2l0,0c0.1-0.1,0.1-0.1,0.2-0.2l0,0c0.1-0.1,0.1-0.1,0.2-0.2
		c0.8,0.8,2.2,2.4,3.8,4.8l0,0c0.1,0.2,0.2,0.3,0.3,0.5l0,0c0.1,0.2,0.2,0.4,0.3,0.5c0,0,0,0.1,0.1,0.1c0.1,0.1,0.2,0.3,0.3,0.5
		c0,0,0,0.1,0.1,0.1c-1.5,0.9-3.1,1.4-4.9,1.4C-410.8,256.8-412.5,256.3-413.9,255.3C-414,255.4-413.9,255.3-413.9,255.3z
		 M-423.3,302.1c-2.1-5.6-2.4-10.6-0.9-14.9c1.1-3.1,3-5.2,4.4-6.5c0.6,3.4,1.6,6.8,3,10.2C-420.8,293.2-422.5,298.7-423.3,302.1z
		 M-406,299.9h-6.2v-2h6.2V299.9z M-403.5,296.2h-11.2v-0.7h0.6l0,0l0,0h10.1l0,0l0,0h0.6L-403.5,296.2L-403.5,296.2z M-403.3,291.1
		c-0.4,0.9-0.8,1.9-1.3,2.8h-9.1c-0.5-0.9-0.9-1.9-1.3-2.8c-1.7-4-2.9-8-3.4-11.9c-1.4-9.7,1.1-17.4,3.6-22.3
		c1.7,1.1,3.6,1.6,5.7,1.6l0,0c2,0,4-0.6,5.7-1.6c2.5,4.9,5,12.6,3.6,22.3C-400.4,283-401.5,287-403.3,291.1z M-394.9,302.1
		c-0.7-3.4-2.5-8.9-6.5-11.1c1.4-3.4,2.4-6.9,3-10.2c1.4,1.3,3.3,3.4,4.4,6.5C-392.5,291.5-392.8,296.5-394.9,302.1z"/>
	<path class="st0" d="M-409.1,303c-0.5,0-0.8,0.4-0.8,0.8V314c0,0.5,0.4,0.8,0.8,0.8c0.5,0,0.8-0.4,0.8-0.8v-10.1
		C-408.3,303.4-408.6,303-409.1,303z"/>
	<path class="st0" d="M-405.2,303c-0.5,0-0.8,0.4-0.8,0.8v6.7c0,0.5,0.4,0.8,0.8,0.8s0.8-0.4,0.8-0.8v-6.6
		C-404.4,303.4-404.7,303-405.2,303z"/>
	<path class="st0" d="M-401.3,299.8c-0.5,0-0.8,0.4-0.8,0.8v7c0,0.5,0.4,0.8,0.8,0.8s0.8-0.4,0.8-0.8v-7
		C-400.4,300.1-400.8,299.8-401.3,299.8z"/>
	<path class="st0" d="M-416.9,299.8c-0.5,0-0.8,0.4-0.8,0.8v7c0,0.5,0.4,0.8,0.8,0.8c0.5,0,0.8-0.4,0.8-0.8v-7
		C-416.1,300.1-416.5,299.8-416.9,299.8z"/>
	<path class="st0" d="M-413,303c-0.5,0-0.8,0.4-0.8,0.8v6.7c0,0.5,0.4,0.8,0.8,0.8s0.8-0.4,0.8-0.8v-6.6
		C-412.2,303.4-412.6,303-413,303z"/>
	<path class="st0" d="M-408.4,271.9h-1.4c-0.9,0-1.6-0.7-1.6-1.6c0-0.9,0.7-1.6,1.6-1.6h3.7c0.5,0,0.8-0.4,0.8-0.8
		c0-0.5-0.4-0.8-0.8-0.8h-2.2v-1.8c0-0.5-0.4-0.8-0.8-0.8c-0.5,0-0.8,0.4-0.8,0.8v1.9c-1.7,0.1-3.1,1.5-3.1,3.2
		c0,1.8,1.4,3.2,3.2,3.2h1.4c0.9,0,1.6,0.7,1.6,1.6c0,0.9-0.7,1.6-1.6,1.6h-0.7l0,0l0,0h-3.1c-0.5,0-0.8,0.4-0.8,0.8
		c0,0.5,0.4,0.8,0.8,0.8h2.2v1.8c0,0.5,0.4,0.8,0.8,0.8c0.5,0,0.8-0.4,0.8-0.8v-1.9c1.7-0.1,3.1-1.5,3.1-3.2
		C-405.2,273.3-406.7,271.9-408.4,271.9z"/>
</g>
</svg>
