<?xml version="1.0" encoding="utf-8"?>
<!-- Generator: Adobe Illustrator 19.0.0, SVG Export Plug-In . SVG Version: 6.00 Build 0)  -->
<svg version="1.1" id="Camada_1" xmlns="http://www.w3.org/2000/svg" xmlns:xlink="http://www.w3.org/1999/xlink" x="0px" y="0px"
	 viewBox="-444 246 70 70" style="enable-background:new -444 246 70 70;" xml:space="preserve">
<style type="text/css">
	.st0{fill:#6B6FFF;}
	.st1{fill:#FFFFFF;}
</style>
<circle id="XMLID_318_" class="st0" cx="-409" cy="281" r="35"/>
<g id="XMLID_60_">
	<path id="XMLID_64_" class="st1" d="M-391.7,274.8c0-2-1.6-3.6-3.6-3.6h-4v-2.3c0-2-1.6-3.6-3.6-3.6h-19.5c-2.1,0-3.9,1.7-3.9,3.9
		v24c0,2,1.6,3.6,3.6,3.6h27.3c2,0,3.6-1.6,3.6-3.6L-391.7,274.8L-391.7,274.8z M-422.4,267.1h19.4c1,0,1.8,0.8,1.8,1.8l0,0v2.3
		h-21.2c-1.1,0-2-0.9-2-2C-424.5,268-423.6,267.1-422.4,267.1z M-393.5,293.1c0,1-0.8,1.8-1.8,1.8h-27.4c-1,0-1.8-0.8-1.8-1.8v-20.7
		h0.1l0.3,0.2h0.1l0.5,0.2h0.1l0.4,0.1h27.8c1,0,1.8,0.8,1.8,1.8v18.4H-393.5z"/>
	<path id="XMLID_61_" class="st1" d="M-400,280.9c-1.5,0-2.7,1.2-2.7,2.7s1.2,2.7,2.7,2.7s2.7-1.2,2.7-2.7
		C-397.2,282.1-398.5,280.9-400,280.9L-400,280.9z M-400,284.5c-0.5,0-0.9-0.4-0.9-0.9s0.4-0.9,0.9-0.9s0.9,0.4,0.9,0.9
		S-399.5,284.5-400,284.5z"/>
</g>
</svg>
