<?xml version="1.0" encoding="utf-8"?>
<!-- Generator: Adobe Illustrator 19.0.0, SVG Export Plug-In . SVG Version: 6.00 Build 0)  -->
<svg version="1.1" id="Camada_1" xmlns="http://www.w3.org/2000/svg" xmlns:xlink="http://www.w3.org/1999/xlink" x="0px" y="0px"
	 viewBox="-444 246 70 70" style="enable-background:new -444 246 70 70;" xml:space="preserve">
<style type="text/css">
	.st0{fill:#6B6FFF;}
	.st1{fill:#FFFFFF;}
</style>
<g>
	<circle class="st0" cx="-409" cy="281" r="35"/>
	<g>
		<g>
			<polygon class="st1" points="-402.5,273.5 -393.1,266.6 -392.3,267.8 -389.9,262.6 -395.6,263.1 -394.6,264.5 -402.5,270.2 
				-413.2,262.8 -430.2,271.4 -430.2,274.3 -413.4,265.9 			"/>
			<path class="st1" d="M-421.5,272.3l-8.7,4.4v22.7h8.7V272.3z M-424.1,296.7h-3.4v-18.4l3.4-1.7V296.7z"/>
			<path class="st1" d="M-419,270.9v28.4h8.7v-28.4l-3.5-2.6L-419,270.9z M-412.9,296.7h-3.4v-24.1l2.3-1.1l1.1,0.8V296.7z"/>
			<path class="st1" d="M-407.8,272.5v26.9h8.7v-25.7l-3.5,2.6L-407.8,272.5z M-401.7,278.9v17.8h-3.4v-19.1l1.1,0.8l1.6,1.1
				L-401.7,278.9z"/>
			<path class="st1" d="M-396.5,299.4h8.7v-33.9l-8.7,6.8V299.4z M-393.9,273.6l3.4-2.7v25.8h-3.4V273.6z"/>
		</g>
	</g>
</g>
</svg>
