<?xml version="1.0" encoding="utf-8"?>
<!-- Generator: Adobe Illustrator 19.0.0, SVG Export Plug-In . SVG Version: 6.00 Build 0)  -->
<svg version="1.1" id="Camada_1" xmlns="http://www.w3.org/2000/svg" xmlns:xlink="http://www.w3.org/1999/xlink" x="0px" y="0px"
	 viewBox="-444 246 70 70" style="enable-background:new -444 246 70 70;" xml:space="preserve">
<style type="text/css">
	.st0{fill:#6B6FFF;}
	.st1{fill:#FFFFFF;}
</style>
<g>
	<circle class="st0" cx="-409" cy="281" r="35"/>
	<path class="st1" d="M-426.7,280.6l-4,4c-0.2,0.2-0.6,0.4-0.8,0.4s-0.6-0.1-0.8-0.4l-4-4c-0.4-0.4-0.4-1.2,0-1.7
		c0.4-0.4,1.2-0.4,1.7,0l1.9,1.9c0-13.1,10.7-23.7,23.8-23.7c0.6,0,1.2,0.5,1.2,1.2c0,0.1,0,0.2-0.1,0.3c-0.1,0.5-0.6,0.9-1.1,0.9
		l0,0c-11.8,0-21.4,9.6-21.4,21.4l0,0l2-2c0.4-0.4,1.2-0.4,1.7,0C-426.2,279.4-426.2,280.2-426.7,280.6z M-404.5,260
		c0.1,0,0.2,0,0.2,0c0.6,0,1.1-0.4,1.1-0.9c0.1-0.6-0.2-1.2-0.9-1.4c-0.6-0.1-1.2,0.2-1.4,0.9C-405.5,259.3-405.2,259.9-404.5,260z
		 M-396.4,263.5c0.2,0.1,0.4,0.2,0.7,0.2c0.4,0,0.7-0.2,0.9-0.5c0.4-0.6,0.2-1.2-0.2-1.6l0,0c-0.6-0.4-1.2-0.2-1.6,0.2
		C-397.1,262.5-397,263.2-396.4,263.5z M-392.3,266.9c0.3,0,0.6-0.1,0.8-0.3c0.5-0.4,0.5-1.2,0.1-1.7s-1.2-0.5-1.7-0.1
		s-0.5,1.2-0.1,1.7C-392.9,266.8-392.6,266.9-392.3,266.9z M-388.6,274.1L-388.6,274.1c0.2,0.5,0.6,0.8,1.1,0.8c0.1,0,0.2,0,0.4-0.1
		c0.6-0.2,0.9-0.9,0.7-1.5c-0.2-0.6-0.9-0.9-1.5-0.7C-388.5,272.9-388.8,273.5-388.6,274.1z M-429.1,288.4c-0.2-0.6-0.9-0.9-1.5-0.7
		s-0.9,0.9-0.7,1.5c0.2,0.5,0.6,0.7,1.1,0.7c0.1,0,0.2,0,0.4-0.1C-429.1,289.6-428.8,289-429.1,288.4z M-389.5,270.7
		c0.2,0,0.4-0.1,0.6-0.2c0.6-0.3,0.7-1.1,0.4-1.6c-0.3-0.6-1.1-0.7-1.6-0.4c-0.6,0.3-0.7,1.1-0.4,1.6
		C-390.3,270.4-389.8,270.7-389.5,270.7z M-400.3,261.4c0.1,0.1,0.3,0.1,0.5,0.1c0.4,0,0.9-0.2,1.1-0.7c0.2-0.6,0-1.3-0.6-1.6
		c-0.6-0.3-1.3,0-1.6,0.6C-401.1,260.4-400.9,261.1-400.3,261.4z M-417,300.8c-0.6-0.2-1.3,0.1-1.6,0.6c-0.2,0.6,0.1,1.3,0.6,1.6
		c0.1,0.1,0.3,0.1,0.4,0.1c0.4,0,0.9-0.2,1.1-0.7C-416.2,301.7-416.4,301.1-417,300.8z M-412.8,302.1c-0.6-0.1-1.2,0.3-1.4,0.9
		c-0.2,0.6,0.3,1.2,0.9,1.4c0.1,0,0.1,0,0.2,0c0.6,0,1.1-0.4,1.2-1C-411.7,302.8-412.1,302.2-412.8,302.1z M-426,295.8
		c-0.5,0.4-0.5,1.2-0.1,1.7c0.2,0.2,0.6,0.4,0.9,0.4s0.6-0.1,0.8-0.3c0.5-0.4,0.5-1.2,0-1.7C-424.8,295.4-425.5,295.3-426,295.8z
		 M-428.7,292c-0.6,0.4-0.7,1.1-0.4,1.6c0.2,0.4,0.6,0.6,1,0.6c0.2,0,0.4-0.1,0.6-0.2c0.6-0.4,0.7-1.1,0.4-1.6
		C-427.5,291.8-428.2,291.6-428.7,292z M-420.9,298.7c-0.6-0.4-1.2-0.2-1.6,0.3c-0.4,0.6-0.2,1.2,0.3,1.6c0.2,0.1,0.4,0.2,0.7,0.2
		c0.4,0,0.7-0.2,1-0.5C-420.3,299.8-420.5,299.1-420.9,298.7z M-381.7,281.4l-4-4c-0.4-0.4-1.2-0.4-1.7,0l-4,4
		c-0.4,0.4-0.4,1.2,0,1.7c0.2,0.2,0.6,0.4,0.8,0.4c0.2,0,0.6-0.1,0.8-0.4l2-2l0,0c0,11.8-9.6,21.4-21.4,21.4c-0.6,0-1.2,0.5-1.2,1.2
		s0.5,1.2,1.2,1.2c13.1,0,23.8-10.6,23.8-23.7l1.9,1.9c0.2,0.2,0.6,0.4,0.8,0.4c0.2,0,0.6-0.1,0.8-0.4
		C-381.3,282.6-381.3,281.8-381.7,281.4z M-410.2,294.2c0,0.6,0.5,1.2,1.2,1.2c0.6,0,1.2-0.5,1.2-1.2V291h0.7h0.1h0.1
		c3.1,0,5.7-2.5,5.7-5.7c0-3.1-2.5-5.7-5.7-5.7h-0.9v-6v-0.7h4c0.6,0,1.2-0.5,1.2-1.2c0-0.6-0.5-1.2-1.2-1.2h-4v-3.1
		c0-0.6-0.5-1.2-1.2-1.2c-0.6,0-1.2,0.5-1.2,1.2v3.1h-0.9c-3.1,0-5.7,2.5-5.7,5.7s2.5,5.7,5.7,5.7h0.9v5.8v0.7h-4.1
		c-0.6,0-1.2,0.5-1.2,1.2c0,0.6,0.5,1.2,1.2,1.2h4.1L-410.2,294.2L-410.2,294.2z M-407.8,288v-5.8h0.9c1.8,0,3.3,1.5,3.3,3.3
		s-1.5,3.3-3.3,3.3h-0.1h-0.1h-0.7L-407.8,288L-407.8,288z M-411.1,279.8c-1.8,0-3.3-1.5-3.3-3.3s1.5-3.3,3.3-3.3h0.9v0.7v6
		L-411.1,279.8L-411.1,279.8z"/>
</g>
</svg>
