<?xml version="1.0" encoding="utf-8"?>
<!-- Generator: Adobe Illustrator 19.0.0, SVG Export Plug-In . SVG Version: 6.00 Build 0)  -->
<svg version="1.1" id="Camada_1" xmlns="http://www.w3.org/2000/svg" xmlns:xlink="http://www.w3.org/1999/xlink" x="0px" y="0px"
	 viewBox="-444 246 70 70" style="enable-background:new -444 246 70 70;" xml:space="preserve">
<style type="text/css">
	.st0{fill:#6B6FFF;}
	.st1{fill:#FFFFFF;}
</style>
<g>
	<circle class="st0" cx="-409" cy="281" r="35"/>
	<g>
		<g>
			<g>
				<path class="st1" d="M-401.4,275c-0.4,0.4-0.8,0.8-1.2,1.2c-0.9,0.9-1.9,1.9-2.8,2.8c-1.1,1.1-2.3,2.3-3.4,3.4
					c-1,1-1.9,1.9-2.9,2.9c-0.5,0.5-0.9,0.9-1.4,1.4c0,0,0,0-0.1,0c0.1-0.1,0.3-0.2,0.4-0.3l0,0c0.2-0.1,0.3-0.1,0.5-0.2l0,0
					c0.2,0,0.4,0,0.6-0.1l0,0c0.2,0,0.4,0,0.6,0.1l0,0c0.2,0.1,0.3,0.1,0.5,0.2l0,0c0.1,0.1,0.3,0.2,0.4,0.3c-0.4-0.3-0.7-0.6-1-1
					c-0.6-0.6-1.2-1.2-1.7-1.7c-0.7-0.7-1.4-1.4-2.1-2.1c-0.5-0.5-0.9-0.9-1.4-1.4c-0.4-0.4-0.9-0.6-1.5-0.6c-0.5,0-1.1,0.2-1.5,0.6
					s-0.6,0.9-0.6,1.5s0.2,1.1,0.6,1.5c1.1,1.1,2.1,2.1,3.2,3.2c0.8,0.8,1.6,1.6,2.4,2.4c0.3,0.3,0.6,0.6,1,0.9
					c0.9,0.5,2.1,0.4,2.8-0.4l0.1-0.1c1.1-1.1,2.2-2.2,3.3-3.3c1.7-1.7,3.4-3.4,5.1-5.1c1-1,2.1-2,3.1-3.1l0,0
					c0.4-0.4,0.6-0.9,0.6-1.5c0-0.5-0.2-1.1-0.6-1.5s-0.9-0.6-1.5-0.6C-400.5,274.4-401,274.6-401.4,275L-401.4,275z"/>
			</g>
		</g>
		<g>
			<g>
				<path class="st1" d="M-409,297.1c-0.8,0-1.6-0.1-2.4-0.2c0.2,0,0.4,0,0.6,0.1c-1.6-0.2-3.1-0.6-4.6-1.2c0.2,0.1,0.3,0.1,0.5,0.2
					c-1.5-0.6-2.8-1.4-4.1-2.4c0.1,0.1,0.3,0.2,0.4,0.3c-1.3-1-2.4-2.1-3.3-3.3c0.1,0.1,0.2,0.3,0.3,0.4c-1-1.2-1.8-2.6-2.4-4.1
					c0.1,0.2,0.1,0.3,0.2,0.5c-0.6-1.5-1-3-1.2-4.6c0,0.2,0,0.4,0.1,0.6c-0.2-1.6-0.2-3.2,0-4.8c0,0.2,0,0.4-0.1,0.6
					c0.2-1.6,0.6-3.1,1.2-4.6c-0.1,0.2-0.1,0.3-0.2,0.5c0.6-1.5,1.4-2.8,2.4-4.1c-0.1,0.1-0.2,0.3-0.3,0.4c1-1.3,2.1-2.4,3.3-3.3
					c-0.1,0.1-0.3,0.2-0.4,0.3c1.2-1,2.6-1.8,4.1-2.4c-0.2,0.1-0.3,0.1-0.5,0.2c1.5-0.6,3-1,4.6-1.2c-0.2,0-0.4,0-0.6,0.1
					c1.6-0.2,3.2-0.2,4.8,0c-0.2,0-0.4,0-0.6-0.1c1.6,0.2,3.1,0.6,4.6,1.2c-0.2-0.1-0.3-0.1-0.5-0.2c1.5,0.6,2.8,1.4,4.1,2.4
					c-0.1-0.1-0.3-0.2-0.4-0.3c1.3,1,2.4,2.1,3.3,3.3c-0.1-0.1-0.2-0.3-0.3-0.4c1,1.2,1.8,2.6,2.4,4.1c-0.1-0.2-0.1-0.3-0.2-0.5
					c0.6,1.5,1,3,1.2,4.6c0-0.2,0-0.4-0.1-0.6c0.2,1.6,0.2,3.2,0,4.8c0-0.2,0-0.4,0.1-0.6c-0.2,1.6-0.6,3.1-1.2,4.6
					c0.1-0.2,0.1-0.3,0.2-0.5c-0.6,1.5-1.4,2.8-2.4,4.1c0.1-0.1,0.2-0.3,0.3-0.4c-1,1.3-2.1,2.4-3.3,3.3c0.1-0.1,0.3-0.2,0.4-0.3
					c-1.2,1-2.6,1.8-4.1,2.4c0.2-0.1,0.3-0.1,0.5-0.2c-1.5,0.6-3,1-4.6,1.2c0.2,0,0.4,0,0.6-0.1C-407.4,297.1-408.2,297.1-409,297.1
					c-0.5,0-1.1,0.2-1.5,0.6s-0.6,0.9-0.6,1.5c0,0.5,0.2,1.1,0.6,1.5s0.9,0.6,1.5,0.6c2.1,0,4.2-0.3,6.2-1c1.9-0.6,3.8-1.5,5.4-2.7
					c0.9-0.6,1.7-1.3,2.5-2.1c0.8-0.8,1.5-1.6,2.1-2.4c1.2-1.6,2.2-3.4,2.9-5.3c0.7-1.9,1.1-4,1.2-6.1s-0.2-4.2-0.8-6.2
					c-0.6-1.9-1.4-3.8-2.5-5.5s-2.4-3.2-4-4.5c-0.8-0.7-1.7-1.3-2.6-1.9s-1.9-1-3-1.4c-1.9-0.8-4-1.2-6-1.4c-2.1-0.2-4.2,0-6.2,0.5
					s-3.9,1.3-5.6,2.3s-3.3,2.3-4.6,3.8c-1.3,1.5-2.5,3.2-3.3,5c-0.5,1-0.9,2-1.2,3.1c-0.3,1.1-0.5,2.2-0.6,3.3
					c-0.2,2.1-0.1,4.2,0.3,6.2s1.2,3.9,2.1,5.7c1,1.7,2.2,3.4,3.7,4.7c1.4,1.4,3.1,2.6,4.9,3.5s3.8,1.6,5.8,1.9
					c1.1,0.2,2.2,0.3,3.2,0.3c0.5,0,1.1-0.2,1.5-0.6s0.6-0.9,0.6-1.5c0-0.5-0.2-1.1-0.6-1.5C-407.9,297.4-408.4,297.1-409,297.1z"/>
			</g>
		</g>
	</g>
</g>
</svg>
