<?xml version="1.0" encoding="utf-8"?>
<!-- Generator: Adobe Illustrator 19.0.0, SVG Export Plug-In . SVG Version: 6.00 Build 0)  -->
<svg version="1.1" id="Camada_1" xmlns="http://www.w3.org/2000/svg" xmlns:xlink="http://www.w3.org/1999/xlink" x="0px" y="0px"
	 viewBox="-444 246 70 70" style="enable-background:new -444 246 70 70;" xml:space="preserve">
<style type="text/css">
	.st0{fill:#6B6FFF;}
	.st1{fill:#FFFFFF;}
</style>
<g>
	<circle class="st0" cx="-409" cy="281" r="35"/>
	<g>
		<path class="st1" d="M-429.7,272.8c0,1.9,0,3.9,0,5.8c0,6.6,2.2,13,6.3,18.1c3.4,4.5,8.1,7.7,13.4,9.3c0.6,0.2,1.3,0.2,1.9,0
			c5.8-1.7,10.4-5.2,14-10c2.8-3.8,4.7-8.1,5.4-12.8c0.2-1.5,0.3-2.9,0.4-4.4c0-4.5,0-9,0-13.5c0-0.3-0.2-0.7-0.5-0.7
			c-6.6-2.9-13.1-5.8-19.7-8.8c-0.3-0.2-0.7-0.2-1,0c-6.6,2.9-13.1,5.8-19.7,8.8c-0.3,0.1-0.6,0.5-0.5,0.8
			C-429.7,267.9-429.7,270.3-429.7,272.8z M-426.1,268.1c0-0.3,0.1-0.6,0.4-0.7c5.4-2.4,10.9-4.8,16.3-7.3c0.2-0.1,0.5-0.1,0.8,0
			c5.5,2.4,10.9,4.9,16.4,7.3c0.3,0.1,0.4,0.3,0.4,0.6c0,3.7,0,7.5,0,11.2c0,1.2-0.1,2.4-0.3,3.6c-0.6,3.8-2.1,7.5-4.5,10.6
			c-2.8,4-6.9,6.9-11.6,8.3c-0.5,0.2-1.1,0.2-1.6,0c-4.5-1.3-8.4-4-11.2-7.7c-3.4-4.3-5.3-9.6-5.2-15.1c0-1.6,0-3.2,0-4.8
			C-426.2,272.2-426.2,270.1-426.1,268.1L-426.1,268.1z"/>
		<path class="st1" d="M-422.9,269.7c4.5-2,9.1-4,13.6-6c0.1,0,0.2-0.1,0.3-0.1V281h-14.2c0-0.5-0.1-1.1-0.1-1.7c0-1.3,0-2.7,0-4
			c0-1.7,0-3.3,0-5C-423.3,270-423.2,269.8-422.9,269.7z"/>
		<path class="st1" d="M-394.8,281H-409v17.4c0.2,0,0.5,0,0.7-0.1c3.9-1.2,7.3-3.6,9.6-6.9c1.9-2.6,3.2-5.6,3.7-8.8
			C-394.9,282.1-394.8,281.5-394.8,281z M-409,281L-409,281L-409,281L-409,281z"/>
	</g>
</g>
</svg>
