<?xml version="1.0" encoding="utf-8"?>
<!-- Generator: Adobe Illustrator 19.0.0, SVG Export Plug-In . SVG Version: 6.00 Build 0)  -->
<svg version="1.1" id="Camada_1" xmlns="http://www.w3.org/2000/svg" xmlns:xlink="http://www.w3.org/1999/xlink" x="0px" y="0px"
	 viewBox="-444 246 70 70" style="enable-background:new -444 246 70 70;" xml:space="preserve">
<style type="text/css">
	.st0{fill:#6B6FFF;}
	.st1{fill:#FFFFFF;}
</style>
<g>
	<circle class="st0" cx="-409" cy="281" r="35"/>
	<path class="st1" d="M-391.5,266.9c-0.3-0.1-0.6-0.3-1-0.3V266c0-2.1-1.5-3.5-3.8-3.5h-0.3c-0.9,0-1.9,0.2-2.7,0.7c0-2.5-1.6-4-4-4
		l0,0c-1.2,0-2.3,0.3-3.1,0.9c-0.5-1.7-2-2.8-4.1-2.8h-0.1c-2,0-3.9,0.9-4.6,2.6c-0.7-0.5-1.6-0.8-2.6-0.8h-0.1c-2.4,0-5,1.5-5,4.1
		v3.3h-0.5c-3.5,0-5.4,2.1-5.4,4.1v3.8v8.5v3.3v0.5c0,1,0.4,2,1,2.7c0.9,1.3,2.3,2.3,3.7,2.3h2.3l0,0c0.5,1.5,1.4,2.7,1.9,3.2
		c-2,0.6-3.8,2.2-3.8,4.4v0.1c0,2.7,2.6,5.2,5.4,5.2h20.7c2.3,0,4.7-2,4.7-5.2v-0.1c0-1.8-0.9-3.2-2.2-4l1-3.6h0.2h0.2
		c2,0,3.4-1.3,4.1-2.9c0.3-0.6,0.4-1.3,0.4-2v-0.1V283v-8.6v-3.3v-0.5C-389.2,268.9-390,267.6-391.5,266.9z M-391,282.2
		c-3.7,0.5-6.7,3.8-7.2,7.7h-10c-0.2-2.1-1-3.5-1.9-4.4c0.6-0.2,1.1-0.5,1.6-0.9c3.2-0.1,5.7-2.7,5.7-5.9c0-3.3-2.7-5.9-5.9-5.9
		c-2.6,0-4.9,1.8-5.7,4.2c-1,0-2.4,0-3.8,0c-1.3,0-2.4,0.4-3.1,1.1c-0.9,0.9-0.9,2.1-0.9,2.4s0,2.1,0,4.1c-1.3-1.4-3-2.2-4.8-2.4
		v-6.8c4.2-0.4,7.3-3.2,7.8-7h4.7h7.4h7h2c0.5,3.7,3.4,6.6,7.1,7L-391,282.2L-391,282.2z M-411.4,277c-0.2,0-0.3,0-0.4,0.1
		c-0.1-0.1-0.3-0.1-0.5-0.1c0,0,0,0-0.1,0c0.6-1.4,2.1-2.4,3.7-2.4c2.2,0,4.1,1.8,4.1,4.1c0,1.7-1.1,3.2-2.6,3.8
		c0.1-0.3,0.1-0.7,0.1-1.1C-407.1,278.9-409,277-411.4,277z M-392.2,268.7c0.7,0.4,1.2,1.2,1.2,2.4v2.3c-2.7-0.4-4.7-2.4-5.2-5h2.5
		C-393.2,268.4-392.6,268.5-392.2,268.7z M-396.5,264.3h0.3c0.7,0,1.9,0.2,1.9,1.7v0.5h-2.9h-1.9V266
		C-399.2,264.9-397.6,264.3-396.5,264.3z M-403.3,261h0.1c1.4,0,2.1,0.7,2.1,2.3v2.8v0.5h-5.2v-3.3
		C-406.2,261.8-404.7,261-403.3,261z M-413.6,261.2c0-1.6,1.8-2.1,3-2.1h0.1c1.1,0,2.4,0.4,2.4,2.1v2v3.3h-5.6v-3.3v-2H-413.6z
		 M-421.1,263.2c0-1.4,1.6-2.3,3.1-2.3h0.1c1.5,0,2.3,0.8,2.3,2.3v3.3h-4.6h-1v-3.3H-421.1z M-423.4,268.4h1.5h0.9
		c0,0.1,0,0.1,0,0.2s0,0.1,0,0.2s-0.1,0.3-0.1,0.4s0,0.1,0,0.2c-0.1,0.2-0.1,0.4-0.2,0.5v0.1c-0.1,0.1-0.1,0.3-0.2,0.4
		c0,0.1-0.1,0.1-0.1,0.2c-0.1,0.1-0.1,0.2-0.2,0.3c0,0.1-0.1,0.1-0.1,0.2c-0.1,0.1-0.2,0.2-0.2,0.3l-0.1,0.1
		c-0.1,0.1-0.2,0.2-0.3,0.3l-0.1,0.1c-0.1,0.1-0.3,0.2-0.4,0.4c0,0-0.1,0-0.1,0.1c-0.1,0.1-0.2,0.2-0.4,0.2c-0.1,0-0.1,0.1-0.2,0.1
		c-0.1,0.1-0.2,0.1-0.4,0.2c-0.1,0-0.1,0.1-0.2,0.1c-0.1,0.1-0.3,0.1-0.4,0.2c-0.1,0-0.1,0-0.2,0.1c-0.2,0.1-0.3,0.1-0.5,0.2h-0.1
		c-0.2,0.1-0.4,0.1-0.6,0.1c-0.1,0-0.1,0-0.2,0s-0.2,0-0.4,0.1v-2.8C-427,269.2-425.2,268.4-423.4,268.4z M-423.1,289.9
		c-0.2-0.1-0.3-0.2-0.6-0.2c-1.1,0-2.1-0.6-2.7-1.4c-0.4-0.6-0.6-1.3-0.6-2.1V284c1.7,0.3,3.4,1.5,4.4,3.1c0.1,0.2,0.2,0.3,0.4,0.3
		c0,0.9,0,1.6,0,2.3c0,0.1,0,0.2,0,0.2H-423.1z M-394.7,299.5c0,1.6-1.2,3.4-2.9,3.4h-20.7c-1.7,0-3.5-1.7-3.5-3.4v-0.1
		c0-1.7,1.8-2.8,3.5-2.8h20.7c1.7,0,2.9,1.1,2.9,2.8V299.5z M-396.9,294.8c-0.2,0-0.5-0.1-0.7-0.1H-418c0-0.3-0.1-0.6-0.3-0.8
		c0,0-2-1.9-2-4.3c-0.1-2.8,0-9.1,0-9.2v-0.1c0,0,0-0.6,0.4-1.1c0.3-0.4,0.9-0.6,1.7-0.6c3.2,0,5.8,0,5.9,0l0,0c0.1,0,0.3,0,0.4-0.1
		c0.1,0.1,0.3,0.2,0.5,0.2c1.4,0,2.5,1.1,2.5,2.5c0,1.2-0.8,2.2-1.9,2.4c-0.1,0-0.2-0.1-0.3-0.1l-5.9-0.1l0,0c-0.5,0-0.9,0.5-0.9,1
		s0.4,1,0.9,1.1l4.4,0.1c1,0.4,2.8,1.8,2.7,5.8c0,0.5,0.4,0.9,0.9,0.9l0,0c0.5,0,0.8-0.3,0.9-0.7h10.8h1.2L-396.9,294.8z
		 M-396.3,289.9c0.4-3,2.6-5.4,5.3-5.9v2.7c0,0.3-0.1,0.7-0.1,1c-0.4,1.2-1.4,2.2-2.8,2.2L-396.3,289.9L-396.3,289.9z"/>
</g>
</svg>
