<?xml version="1.0" encoding="utf-8"?>
<!-- Generator: Adobe Illustrator 19.0.0, SVG Export Plug-In . SVG Version: 6.00 Build 0)  -->
<svg version="1.1" id="Camada_1" xmlns="http://www.w3.org/2000/svg" xmlns:xlink="http://www.w3.org/1999/xlink" x="0px" y="0px"
	 viewBox="-444 246 70 70" style="enable-background:new -444 246 70 70;" xml:space="preserve">
<style type="text/css">
	.st0{fill:#6B6FFF;}
	.st1{fill:#FFFFFF;}
</style>
<g>
	<circle class="st0" cx="-409" cy="281" r="35"/>
	<g>
		<path class="st1" d="M-419.5,300c-0.5,0-0.8,0.4-0.8,0.8v3.9c0,0.5,0.4,0.8,0.8,0.8c0.5,0,0.8-0.4,0.8-0.8v-3.9
			C-418.7,300.3-419.1,300-419.5,300z"/>
		<path class="st1" d="M-398.2,298c-0.5,0-0.8,0.4-0.8,0.8v5.9c0,0.5,0.4,0.8,0.8,0.8c0.4,0,0.8-0.4,0.8-0.8v-5.9
			C-397.4,298.3-397.8,298-398.2,298z"/>
		<path class="st1" d="M-403,271.3l-4.8,3l-1.8-3l4.7-2.8c-0.4-0.4-0.7-0.9-0.8-1.4l-8.6,5.2h-1.7c-0.2,0-0.4-0.2-0.4-0.4V271
			c0.8-0.6,1.4-1.4,1.6-2.4c0.1-0.3,0.1-0.5,0.2-0.7c0.6-0.1,1.1-0.6,1.2-1.2l0.3-1.7c0.1-0.5-0.1-1-0.4-1.3
			c-0.1-0.1-0.1-0.2-0.2-0.2c0.1-0.4,0.2-0.9,0.2-1.4l0,0c0-1.6-0.7-3.2-2-4.2c0-0.2-0.1-0.5-0.3-0.6c-1-0.8-2.3-1.2-3.6-1.2h-0.5
			c-1.1,0-2,0.5-2.9,1.1c-0.2-0.1-0.5,0-0.7,0.1c-1.3,1-2.3,3-2.3,4.9c0,0.5,0.1,0.9,0.2,1.4c-0.1,0.1-0.2,0.1-0.2,0.2
			c-0.3,0.4-0.4,0.8-0.4,1.3l0.3,1.7c0.1,0.6,0.6,1.1,1.2,1.2c0,0.2,0.1,0.4,0.2,0.7c0.3,0.9,0.8,1.8,1.6,2.4v0.8
			c0,0.2-0.2,0.4-0.4,0.4h-3.3c-3.6,0-6.6,2.9-6.6,6.5v19.5c0,2.3,1.5,4,3.6,4c0.5,0,0.8-0.4,0.8-0.8v-3l0.7-7.2v0.5v13
			c0,0.5,0.4,0.8,0.8,0.8c0.5,0,0.8-0.4,0.8-0.8V297h13.8v8.2c0,0.5,0.4,0.8,0.8,0.8c0.5,0,0.8-0.4,0.8-0.8V292l1-14.2l8.4-5.3
			C-402.1,272.1-402.6,271.7-403,271.3z M-430.4,298.3L-430.4,298.3C-430.4,298.4-430.4,298.4-430.4,298.3v2.1
			c-0.7-0.4-1.1-1.3-1.1-2.2v-16h2.6L-430.4,298.3z M-422.9,259.1c0.2,0,0.4,0,0.5-0.2c0.7-0.6,1.7-1.2,2.6-1.2h0.5
			c0.8,0,1.6,0.2,2.2,0.6c0,0.2,0.1,0.4,0.3,0.6c0.7,0.5,1.2,1.2,1.4,2l-0.1-0.1c-0.2-0.3-0.6-0.5-0.9-0.3c-1,0.3-2.2,0.1-3-0.5
			l-1-0.7c-0.3-0.2-0.8-0.2-1,0.1l-0.3,0.3c-0.3,0.3-0.8,0.4-1.3,0.3c-0.2-0.1-0.4,0-0.6,0C-423.4,259.8-423.2,259.4-422.9,259.1z
			 M-422.9,268.2c-0.3-1-0.3-1.2-0.3-1.2c-0.1-0.4-0.4-0.7-0.8-0.7h-0.3l-0.2-1.5c0.3,0,0.5-0.1,0.7-0.4c0.1-0.2,0.2-0.5,0.1-0.7
			c0.1-0.1,0.1-0.1,0.2-0.2l0.8-1.8c0.7,0,1.4-0.2,1.9-0.6l0.5,0.3c1.1,0.8,2.5,1.1,3.8,0.8l0.9,1.4l0.1,0.1c-0.1,0.2,0,0.5,0.1,0.7
			c0.2,0.2,0.4,0.4,0.7,0.4l-0.2,1.5h-0.2c-0.4,0-0.7,0.3-0.8,0.7c0,0,0,0.2-0.3,1.2c-0.2,0.7-0.7,1.3-1.3,1.7l-0.7,0.4
			c-0.8,0.4-1.7,0.4-2.5,0l-0.7-0.4C-422.2,269.6-422.7,268.9-422.9,268.2z M-419.6,276.1c-1.4,0-2.6-1-2.9-2.4
			c0.7-0.3,1.2-1,1.2-1.7c0.5,0.2,1.1,0.3,1.7,0.3s1.1-0.1,1.7-0.3c0.1,0.8,0.5,1.4,1.2,1.7C-417,275-418.2,276.1-419.6,276.1z"/>
		<path class="st1" d="M-386,274.9c-0.4,0.4-0.8,0.8-1.3,1c0.6,0.8,0.9,1.8,0.9,2.8v16.5h-1.4l-1.3-13.8l0.2-2.7
			c0-0.5-0.3-0.9-0.8-0.9c-0.4,0-0.9,0.3-0.9,0.8l-1,13.2c0,0,0,0,0,0.1v1h-5.8v-14.6l3.4-4.6l-1.3-1.1l-3,4.1l-2.5-3.5l-1,0.6
			l-0.4,0.3l3.1,4.2v14.6h-5.4v-1c0,0,0,0,0-0.1l-1-13.2c0,0,0,0,0-0.1v-0.1c0,0,0,0,0-0.1v-0.1c0,0,0,0,0-0.1c0,0,0-0.1-0.1-0.1
			l0,0l-0.1-0.1l0,0c0,0-0.1,0-0.1-0.1l0,0h-0.1l0,0h-0.1c0,0,0,0-0.1,0c0,0,0,0-0.1,0h-1.8l-0.9,0.5l-0.1,1.1h2l0.9,12.4V305
			c0,0.5,0.4,0.8,0.8,0.8c0.4,0,0.8-0.4,0.8-0.8v-10.5h12.9V305c0,0.5,0.4,0.8,0.8,0.8c0.4,0,0.8-0.4,0.8-0.8v-13.2v-0.6l0.7,7.1v3
			c0,0.5,0.4,0.8,0.8,0.8c2.1,0,3.6-1.7,3.6-4v-19.5C-384.8,277.3-385.3,276-386,274.9z M-386.5,298.2c0,0.9-0.3,1.8-1.1,2.2v-2
			v-0.1l-0.1-1.4h1.2C-386.5,296.9-386.5,298.2-386.5,298.2z"/>
		<path class="st1" d="M-404.5,266.8c0.1,0.6,0.6,1.1,1.2,1.2c0,0.2,0.1,0.4,0.2,0.7c0.3,1.2,1.1,2.1,2.1,2.7l0.7,0.4
			c0.6,0.3,1.3,0.5,2,0.5c0.7,0,1.4-0.2,2-0.5l0.7-0.4c1.1-0.6,1.8-1.5,2.2-2.7c0.1-0.3,0.1-0.5,0.2-0.7c0.6-0.1,1.1-0.6,1.2-1.2
			l0.3-1.7c0.1-0.5-0.1-1-0.4-1.3c-0.1-0.1-0.1-0.2-0.2-0.2c0.1-0.4,0.2-0.9,0.2-1.4l0,0c0-1.6-0.7-3.2-2-4.2c0-0.2-0.1-0.5-0.3-0.6
			c-1-0.8-2.3-1.2-3.6-1.2h-0.5c-1.1,0-2,0.5-2.9,1.1c-0.2-0.1-0.5,0-0.7,0.1c-1.3,1-2.3,3-2.3,4.9c0,0.5,0.1,0.9,0.2,1.4
			c-0.1,0.1-0.2,0.1-0.2,0.2c-0.3,0.4-0.4,0.8-0.4,1.3L-404.5,266.8z M-402.4,264.5c0.1-0.2,0.1-0.5,0.1-0.7
			c0.1-0.1,0.1-0.1,0.2-0.2l0.2-0.4l0.7-1.5c0.7,0,1.4-0.2,1.9-0.6l0.5,0.3c1.1,0.8,2.5,1.1,3.8,0.8l0.6,0.9l0.3,0.4l0.1,0.1
			c-0.1,0.2,0,0.5,0.1,0.7c0.2,0.2,0.4,0.4,0.7,0.4l-0.2,1.5h-0.4c-0.4,0-0.7,0.3-0.8,0.7c0,0,0,0.2-0.3,1.2
			c-0.2,0.7-0.7,1.3-1.3,1.7l-0.7,0.4c-0.8,0.4-1.7,0.4-2.5,0l-0.7-0.4c-0.7-0.3-1.1-1-1.3-1.7c-0.3-1-0.3-1.2-0.3-1.2
			c-0.1-0.4-0.4-0.7-0.8-0.7h-0.2l-0.2-1.5C-402.8,264.9-402.6,264.7-402.4,264.5z"/>
		<path class="st1" d="M-388.1,273c-0.3,0.3-0.6,0.5-1.1,0.6c-0.4,0-0.8-0.1-1.1-0.4l-2.8-2.4c-0.3,0.4-0.7,0.8-1.2,1.2l2.9,2.5
			c0.6,0.5,1.3,0.8,2.1,0.8c0.1,0,0.2,0,0.3,0c0.9-0.1,1.7-0.5,2.2-1.2c1.1-1.3,0.9-3.2-0.4-4.3l-3.6-3.1l-0.1,0.4
			c-0.1,0.5-0.3,0.9-0.6,1.3l3.1,2.7C-387.7,271.5-387.6,272.4-388.1,273z"/>
	</g>
</g>
</svg>
