<?xml version="1.0" encoding="utf-8"?>
<!-- Generator: Adobe Illustrator 19.0.0, SVG Export Plug-In . SVG Version: 6.00 Build 0)  -->
<svg version="1.1" id="Camada_1" xmlns="http://www.w3.org/2000/svg" xmlns:xlink="http://www.w3.org/1999/xlink" x="0px" y="0px"
	 viewBox="-444 246 70 70" style="enable-background:new -444 246 70 70;" xml:space="preserve">
<style type="text/css">
	.st0{fill:#6B6FFF;}
	.st1{fill:#FFFFFF;}
</style>
<g>
	<circle class="st0" cx="-409" cy="281" r="35"/>
	<path class="st1" d="M-391,272.2l-1.3,1.3c6.3,8.4,4.6,20.2-3.8,26.5c-2.9,2.2-6.4,3.5-10.1,3.7c-0.4,0-0.9,0-1.3,0
		c-5.4,0-10.5-2.3-14.1-6.2c-0.4-0.5-0.4-1.2,0.1-1.7c0.5-0.4,1.2-0.4,1.6,0.1c6.1,6.8,16.6,7.3,23.4,1.2c6.6-6,7.3-16.2,1.6-23
		c-0.4-0.5-0.4-1.2,0.1-1.6l2-2c0.3-0.3,0.3-0.9-0.1-1.2c-0.3-0.3-0.8-0.3-1.1,0l-2.1,2.1c-0.4,0.4-1.1,0.5-1.5,0.1
		c-2.4-1.8-5.1-2.9-8.1-3.2c-0.6-0.1-1-0.6-1-1.2v-3.8c0-0.6,0.5-1.2,1.2-1.2l0,0h1.1c0.5,0,0.8-0.4,0.8-0.8c0-0.5-0.4-0.8-0.8-0.8
		h-6.2c-0.5,0-0.8,0.4-0.8,0.8c0,0.5,0.4,0.8,0.8,0.8h1.1c0.6,0,1.2,0.5,1.2,1.2v3.8c0,0.6-0.4,1.1-1,1.2c-3.8,0.4-7.3,2.2-10,4.9
		c-0.5,0.5-1.2,0.5-1.7,0s-0.5-1.2,0-1.7c2.8-2.9,6.4-4.8,10.4-5.4v-1.6c-1.7-0.2-3-1.7-2.9-3.5c0.1-1.6,1.4-2.8,3-2.9h6.2
		c1.8,0.1,3.1,1.6,3,3.4c-0.1,1.6-1.3,2.8-2.9,3v1.6c2.6,0.4,5.1,1.4,7.3,2.9l1.4-1.4c1.2-1.2,3.3-1.2,4.5,0
		C-389.8,268.9-389.8,270.9-391,272.2L-391,272.2L-391,272.2z M-429.5,278.8c0,0.6,0.5,1.2,1.2,1.2h8.2c0.6,0,1.2-0.5,1.2-1.2
		c0-0.6-0.5-1.2-1.2-1.2h-8.2C-429,277.7-429.5,278.2-429.5,278.8L-429.5,278.8z M-416.2,284.5c0-0.6-0.5-1.2-1.2-1.2h-8.2
		c-0.6,0-1.2,0.5-1.2,1.2s0.5,1.2,1.2,1.2h8.2C-416.7,285.7-416.2,285.2-416.2,284.5z M-428.3,291.4h8.2c0.6,0,1.2-0.5,1.2-1.2
		c0-0.6-0.5-1.2-1.2-1.2h-8.2c-0.6,0-1.2,0.5-1.2,1.2S-429,291.4-428.3,291.4z M-400.9,280l-3,3c1,1.9,0.3,4.3-1.7,5.4
		c-1.9,1-4.3,0.3-5.4-1.7c-1.1-2-0.3-4.3,1.7-5.4c1.2-0.6,2.5-0.6,3.7,0l3-3c0.5-0.5,1.2-0.5,1.7,0
		C-400.5,278.8-400.5,279.5-400.9,280z M-405.8,284.8c0-0.9-0.7-1.6-1.6-1.6s-1.6,0.7-1.6,1.6s0.7,1.6,1.6,1.6
		C-406.6,286.5-405.8,285.7-405.8,284.8z M-407.4,298.8c7.7,0,14-6.2,14-14c0-7.7-6.2-14-14-14c-3.7,0-7.3,1.5-9.9,4.1
		c-0.5,0.5-0.5,1.2,0,1.7s1.2,0.5,1.7,0c4.5-4.5,11.9-4.6,16.5,0c4.5,4.5,4.6,11.9,0,16.5s-11.9,4.6-16.5,0l0,0
		c-0.5-0.5-1.2-0.5-1.7,0s-0.5,1.2,0,1.7C-414.7,297.3-411.1,298.8-407.4,298.8z"/>
</g>
</svg>
