<?xml version="1.0" encoding="utf-8"?>
<!-- Generator: Adobe Illustrator 19.0.0, SVG Export Plug-In . SVG Version: 6.00 Build 0)  -->
<svg version="1.1" id="Camada_1" xmlns="http://www.w3.org/2000/svg" xmlns:xlink="http://www.w3.org/1999/xlink" x="0px" y="0px"
	 viewBox="-444 246 70 70" style="enable-background:new -444 246 70 70;" xml:space="preserve">
<style type="text/css">
	.st0{fill:#6B6FFF;}
	.st1{fill:#FFFFFF;}
</style>
<g id="XMLID_700_">
	<circle id="XMLID_237_" class="st0" cx="-409" cy="281" r="35"/>
	<g id="XMLID_75_">
		<g id="XMLID_76_">
			<path id="XMLID_79_" class="st1" d="M-395.3,261.8h-27.4c-1.5,0-2.7,1.2-2.7,2.7V281c0,1.5,1.2,2.7,2.7,2.7h9.6l2.7-2.7h-12.3
				v-9.6h27.4v9.6h-5.5l2.7-2.7v-5.5l-17,17c-0.7-0.4-1.4-0.5-2.2-0.5c-3,0-5.5,2.5-5.5,5.5s2.5,5.5,5.5,5.5s5.5-2.5,5.5-5.5
				c0-0.8-0.1-1.5-0.5-2.2l3.3-3.3l3.3,3.3c-0.4,0.7-0.5,1.4-0.5,2.2c0,3,2.5,5.5,5.5,5.5s5.5-2.5,5.5-5.5s-2.5-5.5-5.5-5.5
				c-0.8,0-1.5,0.1-2.2,0.5l-3.3-3.3l2.7-2.7h8.2c1.5,0,2.7-1.2,2.7-2.7v-16.5C-392.6,263.1-393.8,261.8-395.3,261.8z M-417.2,297.4
				c-1.5,0-2.7-1.2-2.7-2.7s1.2-2.7,2.7-2.7s2.7,1.2,2.7,2.7S-415.7,297.4-417.2,297.4z M-400.8,291.9c1.5,0,2.7,1.2,2.7,2.7
				s-1.2,2.7-2.7,2.7s-2.7-1.2-2.7-2.7C-403.5,293.2-402.3,291.9-400.8,291.9z M-395.3,267.3h-27.4v-2.7h27.4
				C-395.3,264.6-395.3,267.3-395.3,267.3z"/>
			<rect id="XMLID_78_" x="-419.9" y="275.5" class="st1" width="2.7" height="2.7"/>
			<rect id="XMLID_77_" x="-414.5" y="275.5" class="st1" width="6.8" height="2.7"/>
		</g>
	</g>
</g>
</svg>
