<?xml version="1.0" encoding="utf-8"?>
<!-- Generator: Adobe Illustrator 19.0.0, SVG Export Plug-In . SVG Version: 6.00 Build 0)  -->
<svg version="1.1" id="Camada_1" xmlns="http://www.w3.org/2000/svg" xmlns:xlink="http://www.w3.org/1999/xlink" x="0px" y="0px"
	 viewBox="-368 166.1 222.8 229.9" style="enable-background:new -368 166.1 222.8 229.9;" xml:space="preserve">
<style type="text/css">
	.st0{fill:#6868FE;}
</style>
<g>
	<path class="st0" d="M-304.7,367.6c-2.1,0-3.8,1.7-3.8,3.8v17.8c0,2.1,1.7,3.8,3.8,3.8c2.1,0,3.8-1.7,3.8-3.8v-17.8
		C-301,369.3-302.7,367.6-304.7,367.6z"/>
	<path class="st0" d="M-207.6,358.5c-2.1,0-3.8,1.7-3.8,3.8v26.9c0,2.1,1.7,3.8,3.8,3.8c2.1,0,3.8-1.7,3.8-3.8v-26.9
		C-203.8,360.2-205.5,358.5-207.6,358.5z"/>
	<path class="st0" d="M-229.4,236.8l-21.7,13.8l-8-13.6l21.4-12.9c-1.9-1.7-3.2-4-3.7-6.6l-39,23.5h-7.7c-1,0-1.8-0.8-1.8-1.8v-3.5
		c3.6-2.6,6.2-6.4,7.4-10.7c0.3-1.3,0.6-2.3,0.8-3.1c2.8-0.5,4.9-2.7,5.4-5.6l1.2-7.6c0.3-2.2-0.3-4.4-1.7-6c-0.3-0.4-0.7-0.7-1.1-1
		c0.5-2,0.8-4.1,0.8-6.2v-0.1c-0.1-7.5-3.4-14.4-9-19.4c-0.1-1.1-0.6-2.1-1.5-2.8c-4.6-3.5-10.4-5.5-16.2-5.5h-2.5
		c-4.8,0-9.2,2.2-13.1,4.8c-1.1-0.2-2.2,0-3.1,0.7c-6.1,4.6-10.3,13.5-10.5,22.2c0,2.1,0.3,4.2,0.9,6.2c-0.4,0.3-0.8,0.7-1.1,1
		c-1.4,1.7-2,3.9-1.7,6l1.2,7.6c0.5,2.8,2.6,5,5.4,5.6c0.2,0.8,0.5,1.8,0.8,3.1c1.1,4.3,3.8,8.1,7.4,10.7v3.5c0,1-0.8,1.8-1.8,1.8
		h-15c-16.5,0-30,13.4-30,29.8v89c0,10.6,6.9,18.3,16.3,18.3c2.1,0,3.8-1.7,3.8-3.8v-13.7l3-32.7l0.2,2.1v59.2
		c0,2.1,1.7,3.8,3.8,3.8s3.8-1.7,3.8-3.8v-35.7h62.8v37.3c0,2.1,1.7,3.8,3.8,3.8c2.1,0,3.8-1.7,3.8-3.8v-60.1l4.4-64.6l38.3-24.4
		C-225.4,240.4-227.5,238.7-229.4,236.8z M-354.5,360c0,0.1,0,0.1,0,0.2s0,0.1,0,0.2v9.3c-3.4-1.7-5-5.8-5-9.9v-73h11.8L-354.5,360z
		 M-320.3,181.5c0.8,0,1.7-0.2,2.4-0.8c3.4-2.6,7.7-5.5,11.7-5.5h2.5c3.6,0,7.2,1,10.2,2.9c0.1,1,0.7,2,1.5,2.6
		c3.1,2.4,5.3,5.5,6.5,9.1l-0.3-0.4c-0.9-1.4-2.6-2.1-4.3-1.6c-4.7,1.4-9.8,0.6-13.9-2.2l-4.6-3.1c-1.5-1-3.5-0.8-4.8,0.4l-1.3,1.2
		c-1.5,1.5-3.7,2-5.8,1.5c-0.9-0.3-1.8-0.2-2.6,0.2C-322.3,184.3-321.4,182.8-320.3,181.5z M-320.1,223c-1.3-4.7-1.4-5.5-1.5-5.5
		c-0.3-1.8-1.9-3.1-3.7-3.1h-1l-1.1-6.9c1.2,0,2.4-0.6,3.1-1.6c0.7-0.9,0.8-2.1,0.5-3.2c0.3-0.3,0.5-0.6,0.7-1l3.8-8.2
		c3.2,0.1,6.3-1,8.8-2.9l2.1,1.4c5.2,3.5,11.4,4.9,17.5,3.8l4.1,6.4c0.1,0.2,0.3,0.4,0.5,0.6c-0.3,1.1-0.1,2.2,0.5,3.1
		c0.7,1,1.9,1.6,3.1,1.6l-1.1,6.9h-1c-1.8,0-3.3,1.3-3.7,3c0,0.1-0.2,0.8-1.5,5.6c-0.9,3.2-3.1,6-6,7.6l-3.3,1.8
		c-3.6,1.9-7.9,1.9-11.5,0l-3.3-1.8C-317.1,229-319.3,226.2-320.1,223z M-305,258.7c-6.5,0-12-4.7-13.1-10.9c3.1-1.4,5.4-4.4,5.6-8
		c2.4,1,5,1.5,7.5,1.5c2.6,0,5.1-0.5,7.5-1.5c0.2,3.6,2.5,6.6,5.6,8C-293.1,254-298.5,258.7-305,258.7z"/>
	<path class="st0" d="M-152.1,253.5c-1.7,1.9-3.8,3.4-6,4.5c2.5,3.6,4.1,8,4.1,12.7v75.1h-6.3l-5.8-62.9l0.9-12.3
		c0.2-2.1-1.4-3.9-3.5-4.1c-2-0.1-3.9,1.4-4.1,3.5l-4.5,60.2c0,0.1,0,0.2,0,0.3v4.7h-26.5v-66.3l15.5-21.1l-5.7-5l-13.6,18.5
		l-11.6-15.8l-4.6,2.9l-1.8,1.1l14.2,19.3v66.3h-24.4v-4.7c0-0.1,0-0.2,0-0.3l-4.5-60.2c0-0.1,0-0.2,0-0.2c0-0.1,0-0.3-0.1-0.4
		c0-0.1-0.1-0.2-0.1-0.3s-0.1-0.3-0.2-0.4c0-0.1-0.1-0.2-0.1-0.2c-0.1-0.1-0.2-0.3-0.3-0.4c0-0.1-0.1-0.1-0.1-0.2
		c-0.1-0.1-0.2-0.3-0.4-0.4l-0.1-0.1c-0.1-0.1-0.3-0.2-0.5-0.3l-0.1-0.1c-0.2-0.1-0.3-0.2-0.5-0.2c-0.1,0-0.1,0-0.2-0.1
		c-0.2,0-0.3-0.1-0.5-0.1c-0.1,0-0.2,0-0.3,0c-0.1,0-0.2,0-0.3,0h-8.2l-3.9,2.5l-0.3,5.1h9l4.3,56.5v60c0,2.1,1.7,3.8,3.8,3.8
		c2.1,0,3.8-1.7,3.8-3.8v-47.9h58.4v47.9c0,2.1,1.7,3.8,3.8,3.8s3.8-1.7,3.8-3.8v-60l0.2-2.6l3,32.4v13.7c0,2.1,1.7,3.8,3.8,3.8
		c9.4,0,16.3-7.7,16.3-18.3v-89C-146.5,264.4-148.6,258.4-152.1,253.5z M-154.1,359.8c0,4.1-1.6,8.1-5,9.9v-9.3c0-0.1,0-0.2,0-0.3
		l-0.6-6.6h5.6V359.8z"/>
	<path class="st0" d="M-236.3,216.3c0.5,2.8,2.6,5,5.4,5.6c0.2,0.8,0.5,1.8,0.8,3.1c1.4,5.2,5,9.7,9.8,12.3l3.3,1.8
		c2.9,1.6,6.1,2.3,9.3,2.3c3.2,0,6.4-0.8,9.3-2.3l3.3-1.8c4.8-2.6,8.4-7,9.8-12.3c0.3-1.3,0.6-2.3,0.8-3.1c2.8-0.5,4.9-2.7,5.4-5.6
		l1.2-7.6c0.3-2.2-0.3-4.4-1.7-6c-0.3-0.4-0.7-0.7-1.1-1c0.5-2,0.8-4.1,0.8-6.2v-0.1c-0.1-7.5-3.4-14.4-9-19.4
		c-0.1-1.1-0.6-2.1-1.5-2.8c-4.6-3.5-10.4-5.5-16.2-5.5h-2.5c-4.8,0-9.2,2.2-13.1,4.8c-1.1-0.2-2.2,0-3.1,0.7
		c-6.1,4.6-10.3,13.5-10.5,22.2c0,2.1,0.3,4.2,0.9,6.2c-0.4,0.3-0.8,0.7-1.1,1c-1.4,1.7-2,3.9-1.7,6L-236.3,216.3z M-226.9,205.9
		c0.7-0.9,0.8-2.1,0.5-3.2c0.3-0.3,0.5-0.6,0.7-1l0.7-1.6l3.1-6.6c3.2,0.1,6.3-1,8.8-2.9l2.1,1.4c5.2,3.5,11.4,4.9,17.5,3.8l2.8,4.3
		l1.3,2c0.1,0.2,0.3,0.4,0.5,0.6c-0.3,1.1-0.1,2.2,0.5,3.1c0.7,1,1.9,1.6,3.1,1.6l-1.1,6.9h-1c-1.8,0-3.3,1.3-3.7,3
		c0,0.1-0.2,0.8-1.5,5.6c-0.9,3.2-3.1,6-6,7.6l-3.3,1.8c-3.6,1.9-7.9,1.9-11.5,0l-3.3-1.8c-3-1.6-5.2-4.3-6-7.6
		c-1.2-4.5-1.4-5.4-1.5-5.5c-0.3-1.8-1.9-3.1-3.7-3.1h-1l-1.1-6.9C-228.7,207.5-227.6,206.9-226.9,205.9z"/>
	<path class="st0" d="M-161.4,244.6c-1.2,1.5-2.9,2.4-4.8,2.6c-1.9,0.2-3.8-0.4-5.2-1.7l-12.6-11c-1.5,2-3.3,3.9-5.3,5.4l13,11.3
		c2.7,2.3,6,3.6,9.5,3.6c0.4,0,0.9,0,1.3-0.1c4-0.4,7.5-2.3,10-5.4c4.8-6,4.1-14.7-1.8-19.8l-16.2-14.1l-0.3,1.7
		c-0.3,2.2-1.3,4.2-2.7,5.8l14.2,12.3C-159.5,237.7-159.1,241.8-161.4,244.6z"/>
</g>
</svg>
