<?xml version="1.0" encoding="utf-8"?>
<!-- Generator: Adobe Illustrator 19.0.0, SVG Export Plug-In . SVG Version: 6.00 Build 0)  -->
<svg version="1.1" id="Camada_1" xmlns="http://www.w3.org/2000/svg" xmlns:xlink="http://www.w3.org/1999/xlink" x="0px" y="0px"
	 viewBox="-444 246 70 70" style="enable-background:new -444 246 70 70;" xml:space="preserve">
<style type="text/css">
	.st0{fill:#6B6FFF;}
	.st1{fill:#FFFFFF;}
</style>
<g id="XMLID_715_">
	<circle id="XMLID_58_" class="st0" cx="-408.7" cy="281.7" r="35"/>
	<g id="XMLID_50_">
		<path id="XMLID_55_" class="st1" d="M-408.7,291.1c-0.3,0-0.5-0.1-0.6-0.3c-3.6-3.2-8.1-7.2-8.1-11.8c0-4,2.5-5.5,4.8-5.5
			c1.6,0,3.1,1.2,4,2.1c0.8-0.9,2.3-2.1,4-2.1c2.3,0,4.8,1.4,4.8,5.5c0,4.7-4.5,8.6-8.1,11.8C-408.3,291-408.5,291.1-408.7,291.1z
			 M-412.7,275.5c-1.8,0-2.9,1.2-2.9,3.5c0,3.5,3.6,7,6.8,9.8c3.2-2.9,6.8-6.3,6.8-9.8c0-3.1-1.8-3.5-2.9-3.5
			c-1.2,0-2.7,1.7-3.2,2.3c-0.4,0.5-1.2,0.5-1.6,0C-410,277.2-411.5,275.5-412.7,275.5z"/>
		<path id="XMLID_51_" class="st1" d="M-385.3,281l-3.2-3.4l1.7-4.4c0.2-0.5-0.1-1-0.5-1.2l-4.2-1.9l-0.1-4.6c0-0.5-0.5-0.9-1-1
			l-4.6-0.1l-1.9-4.2c-0.2-0.5-0.8-0.7-1.2-0.5l-4.4,1.7l-3.4-3.2c-0.4-0.4-1-0.4-1.4,0l-3.4,3.2l-4.4-1.7c-0.5-0.2-1,0.1-1.2,0.5
			l-1.9,4.2l-4.6,0.1c-0.5,0-0.9,0.5-1,1v4.6l-4.2,1.9c-0.5,0.2-0.7,0.8-0.5,1.2l1.7,4.4l-3.2,3.4c-0.4,0.4-0.4,1,0,1.4l3.2,3.4
			l-1.7,4.4c-0.2,0.5,0.1,1,0.5,1.2l4.2,1.9l0.1,4.6c0,0.5,0.5,0.9,1,1l4.6,0.1l1.9,4.2c0.2,0.5,0.8,0.7,1.2,0.5l4.4-1.7l3.4,3.2
			c0.2,0.2,0.5,0.3,0.6,0.3c0.2,0,0.5-0.1,0.6-0.3l3.4-3.2l4.4,1.7c0.5,0.2,0.9,0,1.2-0.4l14-21C-384.9,281.8-384.9,281.3-385.3,281
			z M-398.6,298.8l-0.7-2.3l2.5-2.3c0.3-0.2,0.4-0.6,0.3-0.9l-0.7-4.3l4.2-1c0.3-0.1,0.6-0.3,0.7-0.6l1.2-3.2l2.4-0.2L-398.6,298.8z
			 M-400.4,301.5l-4.2-1.6c-0.3-0.1-0.8-0.1-1,0.2l-3.1,3l-3.1-3c-0.2-0.2-0.5-0.3-0.6-0.3s-0.3,0-0.3,0.1l-4,1.6l-1.8-4
			c-0.1-0.3-0.5-0.6-0.8-0.6l-4.4-0.1l-0.1-4.4c0-0.4-0.3-0.7-0.6-0.8l-4-1.8l1.6-4c0.1-0.3,0.1-0.8-0.2-1l-3-3.1l3-3.1
			c0.3-0.3,0.3-0.6,0.2-1l-1.6-4l4-1.8c0.3-0.1,0.6-0.5,0.6-0.8l0.1-4.4l4.4-0.1c0.4,0,0.7-0.3,0.8-0.6l1.8-4l4,1.6
			c0.3,0.1,0.8,0.1,1-0.2l3.1-3l3.1,3c0.3,0.3,0.6,0.3,1,0.2l4-1.6l1.8,4c0.1,0.3,0.5,0.6,0.8,0.6l4.4,0.1l0.1,4.4
			c0,0.4,0.3,0.7,0.6,0.8l4,1.8l-1.7,4c-0.1,0.3-0.1,0.8,0.2,1l3.1,3.2l-0.1,0.1l-4.5,0.4c-0.4,0.1-0.7,0.3-0.8,0.6l-1.4,3.4l-4.6,1
			c-0.5,0.1-0.8,0.6-0.7,1.1l0.8,4.7l-2.6,2.4c-0.3,0.3-0.4,0.6-0.3,1l1.4,4.4L-400.4,301.5z"/>
	</g>
</g>
</svg>
