<?xml version="1.0" encoding="utf-8"?>
<!-- Generator: Adobe Illustrator 19.0.0, SVG Export Plug-In . SVG Version: 6.00 Build 0)  -->
<svg version="1.1" id="Camada_1" xmlns="http://www.w3.org/2000/svg" xmlns:xlink="http://www.w3.org/1999/xlink" x="0px" y="0px"
	 viewBox="-444 246 70 70" style="enable-background:new -444 246 70 70;" xml:space="preserve">
<style type="text/css">
	.st0{fill:#6B6FFF;}
	.st1{fill:#FFFFFF;}
</style>
<circle id="XMLID_345_" class="st0" cx="-409" cy="281" r="35"/>
<g id="XMLID_23_">
	<path id="XMLID_30_" class="st1" d="M-400.6,279.4c1.1-8-1.2-14.2-3.3-18c-2.2-4-4.6-6.1-4.7-6.2l0,0l0,0l0,0l0,0l0,0l0,0l0,0l0,0
		l0,0l0,0l0,0l0,0l0,0l0,0l0,0l0,0l0,0l0,0l0,0l0,0l0,0l0,0l0,0l0,0c-0.1,0.1-2.5,2.2-4.7,6.2c-2.1,3.8-4.3,10-3.3,18
		c-1.2,1-3.2,2.9-4.3,6c-1.4,4.1-0.9,8.9,1.6,14.3c0.1,0.2,0.3,0.4,0.6,0.4h0.1c0.3,0,0.5-0.3,0.5-0.6c0-0.1,0.8-7.4,4.6-9.6
		c0.2,0.3,0.3,0.7,0.5,1h-0.1c-0.3,0-0.6,0.3-0.6,0.6v1.8c0,0.3,0.3,0.6,0.6,0.6h1.3v2.2c0,0.3,0.3,0.6,0.6,0.6h6
		c0.3,0,0.6-0.3,0.6-0.6V294h1.3c0.3,0,0.6-0.3,0.6-0.6v-1.8c0-0.3-0.3-0.6-0.6-0.6h-0.1c0.2-0.3,0.3-0.7,0.5-1
		c3.8,2.2,4.6,9.6,4.6,9.6c0,0.3,0.2,0.5,0.5,0.6h0.1c0.2,0,0.5-0.1,0.6-0.4c2.5-5.4,3-10.2,1.6-14.3
		C-397.4,282.3-399.4,280.4-400.6,279.4z M-412.7,261.5c0.1-0.1,0.1-0.2,0.2-0.4c0,0,0,0,0-0.1c0.1-0.1,0.2-0.3,0.3-0.4
		c0,0,0,0,0-0.1c0.1-0.1,0.1-0.2,0.2-0.3c0,0,0-0.1,0.1-0.1c0.2-0.3,0.3-0.5,0.5-0.7c0,0,0-0.1,0.1-0.1c0.1-0.1,0.1-0.2,0.2-0.3l0,0
		c0.1-0.1,0.2-0.2,0.2-0.3c0,0,0,0,0-0.1c0.1-0.1,0.1-0.2,0.2-0.2c0,0,0,0,0-0.1c0.1-0.1,0.1-0.2,0.2-0.3l0,0
		c0.1-0.1,0.1-0.2,0.2-0.2c0,0,0,0,0-0.1c0.1-0.1,0.1-0.1,0.2-0.2l0,0c0.1-0.1,0.1-0.1,0.2-0.2l0,0c0.1-0.1,0.1-0.1,0.2-0.2l0,0
		c0.1-0.1,0.1-0.1,0.2-0.2l0,0c0.1-0.1,0.1-0.1,0.1-0.2l0,0l0.1-0.1c0.6,0.6,1.7,1.8,2.9,3.6l0,0c0.1,0.1,0.2,0.3,0.3,0.4l0,0
		c0.1,0.1,0.2,0.3,0.3,0.4c0,0,0,0,0,0.1c0.1,0.1,0.1,0.2,0.2,0.3c0,0,0,0,0,0.1c-1.1,0.7-2.4,1.1-3.7,1.1
		C-410.3,262.6-411.6,262.2-412.7,261.5L-412.7,261.5z M-419.8,297.2c-1.6-4.3-1.8-8.1-0.7-11.4c0.8-2.4,2.3-4,3.3-4.9
		c0.5,2.6,1.2,5.2,2.3,7.8C-417.9,290.4-419.2,294.6-419.8,297.2z M-406.6,295.5h-4.7V294h4.7V295.5z M-404.7,292.7h-8.6v-0.6h0.4
		l0,0l0,0h7.7l0,0l0,0h0.4L-404.7,292.7L-404.7,292.7z M-404.5,288.8c-0.3,0.7-0.6,1.4-1,2.1h-6.9c-0.4-0.7-0.7-1.4-1-2.1
		c-1.3-3.1-2.2-6.1-2.6-9.1c-1.1-7.4,0.8-13.3,2.8-17c1.3,0.8,2.8,1.2,4.3,1.2l0,0c1.5,0,3-0.4,4.3-1.2c1.9,3.7,3.8,9.6,2.8,17
		C-402.3,282.6-403.2,285.7-404.5,288.8z M-398.2,297.2c-0.6-2.6-1.9-6.8-5-8.5c1.1-2.6,1.9-5.2,2.3-7.8c1.1,1,2.5,2.6,3.3,4.9
		C-396.3,289.1-396.6,292.9-398.2,297.2z"/>
	<path id="XMLID_29_" class="st1" d="M-409,297.9c-0.3,0-0.6,0.3-0.6,0.6v7.8c0,0.3,0.3,0.6,0.6,0.6s0.6-0.3,0.6-0.6v-7.8
		C-408.4,298.2-408.7,297.9-409,297.9z"/>
	<path id="XMLID_28_" class="st1" d="M-406,297.9c-0.3,0-0.6,0.3-0.6,0.6v5.1c0,0.3,0.3,0.6,0.6,0.6s0.6-0.3,0.6-0.6v-5.1
		C-405.4,298.2-405.7,297.9-406,297.9z"/>
	<path id="XMLID_27_" class="st1" d="M-403,295.4c-0.3,0-0.6,0.3-0.6,0.6v5.3c0,0.3,0.3,0.6,0.6,0.6s0.6-0.3,0.6-0.6V296
		C-402.4,295.7-402.7,295.4-403,295.4z"/>
	<path id="XMLID_26_" class="st1" d="M-415,295.4c-0.3,0-0.6,0.3-0.6,0.6v5.3c0,0.3,0.3,0.6,0.6,0.6s0.6-0.3,0.6-0.6V296
		C-414.4,295.7-414.6,295.4-415,295.4z"/>
	<path id="XMLID_25_" class="st1" d="M-412,297.9c-0.3,0-0.6,0.3-0.6,0.6v5.1c0,0.3,0.3,0.6,0.6,0.6s0.6-0.3,0.6-0.6v-5.1
		C-411.4,298.2-411.6,297.9-412,297.9z"/>
	<path id="XMLID_24_" class="st1" d="M-408.5,274.1h-1c-0.7,0-1.2-0.5-1.2-1.2c0-0.7,0.5-1.2,1.2-1.2h2.9c0.3,0,0.6-0.3,0.6-0.6
		c0-0.3-0.3-0.6-0.6-0.6h-1.7v-1.4c0-0.3-0.3-0.6-0.6-0.6c-0.3,0-0.6,0.3-0.6,0.6v1.4c-1.3,0.1-2.3,1.1-2.3,2.4
		c0,1.3,1.1,2.4,2.4,2.4h1c0.7,0,1.2,0.5,1.2,1.2s-0.5,1.2-1.2,1.2h-0.6l0,0l0,0h-2.3c-0.3,0-0.6,0.3-0.6,0.6c0,0.3,0.3,0.6,0.6,0.6
		h1.7v1.4c0,0.3,0.3,0.6,0.6,0.6s0.6-0.3,0.6-0.6V279c1.3-0.1,2.3-1.1,2.3-2.4C-406,275.2-407.1,274.1-408.5,274.1z"/>
</g>
</svg>
