<?xml version="1.0" encoding="utf-8"?>
<!-- Generator: Adobe Illustrator 19.0.0, SVG Export Plug-In . SVG Version: 6.00 Build 0)  -->
<svg version="1.1" id="Camada_1" xmlns="http://www.w3.org/2000/svg" xmlns:xlink="http://www.w3.org/1999/xlink" x="0px" y="0px"
	 viewBox="-444 246 70 70" style="enable-background:new -444 246 70 70;" xml:space="preserve">
<style type="text/css">
	.st0{fill:#6B6FFF;}
	.st1{fill:#FFFFFF;}
</style>
<circle id="XMLID_291_" class="st0" cx="-409" cy="281" r="35"/>
<g id="XMLID_3_">
	<g id="XMLID_17_">
		<path id="XMLID_18_" class="st1" d="M-409,303.5c-12.4,0-22.5-10.1-22.5-22.5s10.1-22.5,22.5-22.5s22.5,10.1,22.5,22.5
			S-396.6,303.5-409,303.5z M-409,260.3c-11.4,0-20.7,9.3-20.7,20.7s9.3,20.7,20.7,20.7s20.7-9.3,20.7-20.7S-397.6,260.3-409,260.3z
			"/>
	</g>
	<g id="DLHuiO_1_">
		<g id="XMLID_12_">
			<g id="XMLID_13_">
				<path id="XMLID_14_" class="st1" d="M-415.9,281.2c-0.4,0-0.6-0.2-0.7-0.3c-0.2-0.2-0.4-0.3-0.6-0.5c-0.5-0.4-1-0.8-1.5-1.2
					c-1.2-1.1-2.4-2.3-2.8-4.1V275v-0.8v-0.1V274l0,0c0.1-0.9,0.5-1.6,1.1-2.1s1.4-0.8,2.3-0.8c0.8,0,1.6,0.3,2.2,0.7
					c0.6-0.5,1.3-0.7,2.1-0.7c1.4,0,2.6,0.8,3.2,2.1c0.1,0.2,0.2,0.5,0.2,0.7c0,0.1,0,0.2,0.1,0.2v0.1v0.8l-0.1,0.4
					c-0.2,0.9-0.7,1.6-1.2,2.2c-1.2,1.5-2.6,2.6-3.7,3.4C-415.4,281.2-415.7,281.2-415.9,281.2z M-419.7,274.9
					c0.3,1.2,1.2,2.1,2.2,3c0.4,0.4,0.9,0.7,1.4,1.1c0.1,0.1,0.2,0.1,0.3,0.2c0.9-0.7,2-1.6,3-2.7c0.5-0.6,0.7-1,0.8-1.4
					c0-0.1,0-0.1,0-0.2v-0.3c0-0.1,0-0.1,0-0.2s-0.1-0.3-0.1-0.4c-0.3-0.6-0.9-1-1.5-1c-0.5,0-1,0.2-1.3,0.6l-0.1,0.1l-0.7,0.7
					l-0.8-0.8c-0.1-0.1-0.1-0.1-0.2-0.2c-0.3-0.3-0.8-0.5-1.2-0.5s-0.8,0.1-1.1,0.4c-0.2,0.2-0.4,0.5-0.5,0.9c0,0,0,0.1,0,0.2v0.5
					H-419.7z"/>
			</g>
		</g>
	</g>
	<g id="DLHuiO_2_">
		<g id="XMLID_7_">
			<g id="XMLID_8_">
				<path id="XMLID_9_" class="st1" d="M-401.8,281.2c-0.4,0-0.6-0.2-0.7-0.3c-0.2-0.2-0.4-0.3-0.7-0.5c-0.5-0.4-1-0.8-1.5-1.2
					c-1.2-1.1-2.4-2.3-2.8-4.1V275v-0.8v-0.1V274l0,0c0.1-0.9,0.5-1.6,1.1-2.1s1.4-0.8,2.3-0.8c0.8,0,1.6,0.3,2.2,0.7
					c0.6-0.5,1.4-0.7,2.1-0.7c1.4,0,2.6,0.8,3.2,2.1c0.1,0.2,0.2,0.5,0.2,0.7c0,0.1,0,0.2,0.1,0.2v0.1v0.8v0.1c0,0.1,0,0.2-0.1,0.2
					c-0.2,0.9-0.7,1.6-1.2,2.1c-1.2,1.5-2.6,2.6-3.7,3.4C-401.4,281.2-401.6,281.2-401.8,281.2z M-405.6,274.9
					c0.3,1.2,1.2,2.1,2.2,3c0.4,0.4,0.9,0.7,1.4,1.1c0.1,0.1,0.2,0.1,0.3,0.2c0.9-0.7,2-1.6,3-2.7c0.5-0.6,0.7-1,0.8-1.4
					c0-0.1,0-0.1,0-0.2v-0.3c0-0.1,0-0.1,0-0.2s-0.1-0.3-0.1-0.4c-0.3-0.6-0.9-1-1.5-1c-0.5,0-1,0.2-1.3,0.6l-0.1,0.1l-0.7,0.7
					l-0.8-0.8c-0.1-0.1-0.1-0.1-0.2-0.2c-0.3-0.3-0.8-0.5-1.2-0.5c-0.4,0-0.8,0.1-1.1,0.4c-0.2,0.2-0.4,0.5-0.5,0.9c0,0,0,0.1,0,0.2
					v0.5H-405.6z"/>
			</g>
		</g>
	</g>
	<g id="XMLID_4_">
		<g id="XMLID_5_">
			<path id="XMLID_6_" class="st1" d="M-409.1,296.1c-7.8,0-13.9-6.4-14.5-12.1c0-0.5,0.3-0.9,0.8-1c0.5,0,0.9,0.3,1,0.8
				c0.5,4.9,6,10.4,12.7,10.4c6.7,0,12.2-5.5,12.7-10.4c0-0.5,0.5-0.9,1-0.8c0.5,0,0.9,0.5,0.8,1
				C-395.2,289.7-401.3,296.1-409.1,296.1z"/>
		</g>
	</g>
</g>
</svg>
